<?xml version="1.0" encoding="UTF-8"?>
<svg width="50px" height="50px" viewBox="0 0 50 50" version="1.1" xmlns="http://www.w3.org/2000/svg" xmlns:xlink="http://www.w3.org/1999/xlink">
    <!-- Generator: Sketch 49.3 (51167) - http://www.bohemiancoding.com/sketch -->
    <title>icon/50px/專業筆類</title>
    <desc>Created with Sketch.</desc>
    <defs>
        <polygon id="path-1" points="0 0.8441 7.9908 0.8441 7.9908 43 0 43"></polygon>
        <polygon id="path-3" points="0.1127 0.0431 8.103 0.0431 8.103 42 0.1127 42"></polygon>
        <polygon id="path-5" points="0.0028 0 13.1008 0 13.1008 45.7857328 0.0028 45.7857328"></polygon>
    </defs>
    <g id="icon/50px/專業筆類" stroke="none" stroke-width="1" fill="none" fill-rule="evenodd">
        <rect id="bound" x="0" y="0" width="50" height="50"></rect>
        <g id="Page-1" transform="translate(7.000000, 2.000000)">
            <g id="Group-3" transform="translate(0.000000, 3.000000)">
                <mask id="mask-2" fill="white">
                    <use xlink:href="#path-1"></use>
                </mask>
                <g id="Clip-2"></g>
                <path d="M6.9798,10.1191 C6.9798,10.3531 6.7888,10.5451 6.5548,10.5451 L1.4368,10.5451 C1.2018,10.5451 1.0108,10.3531 1.0108,10.1191 L1.0108,8.9481 C1.0108,8.7141 1.2018,8.5231 1.4368,8.5231 L6.5548,8.5231 C6.7888,8.5231 6.9798,8.7141 6.9798,8.9481 L6.9798,10.1191 Z M4.9368,20.5711 C4.8718,22.4521 4.8098,24.3331 4.7468,26.2141 L4.7408,26.2141 C4.5818,31.0381 4.4238,35.8621 4.2618,40.6861 C4.2528,40.9641 4.2198,41.2411 4.1838,41.5161 C4.1688,41.6321 4.1068,41.7401 3.9708,41.7501 C3.8298,41.7601 3.7578,41.6501 3.7338,41.5421 C3.6798,41.3041 3.6258,41.0591 3.6168,40.8171 C3.4458,35.8791 3.2818,30.9391 3.1148,26.0011 C2.9538,21.2091 2.7968,16.4171 2.6178,11.6261 C2.6168,11.6001 2.6178,11.5801 2.6178,11.5561 L5.2538,11.5561 C5.1398,14.5601 5.0398,17.5661 4.9368,20.5711 Z M5.5408,4.6151 C5.5758,4.6381 5.6128,4.7031 5.6128,4.7841 L5.6128,7.5131 L2.3778,7.5131 L2.3778,2.6581 L5.5408,4.6151 Z M6.6238,7.5191 L6.6238,4.7841 C6.6238,4.3601 6.4118,3.9661 6.0718,3.7561 L1.3678,0.8441 L1.3678,7.5191 C0.6078,7.5561 -0.0002,8.1811 -0.0002,8.9481 L-0.0002,10.1191 C-0.0002,10.9111 0.6448,11.5561 1.4368,11.5561 L1.4588,11.5561 C1.5788,15.3861 1.7108,19.2171 1.8378,23.0471 C2.0148,28.3601 2.1798,33.6741 2.3728,38.9861 C2.4058,39.8831 2.3448,40.7891 2.5188,41.6771 C2.6908,42.5571 3.1878,43.0011 3.9668,43.0001 C4.7318,42.9991 5.2008,42.5771 5.4028,41.7231 C5.5298,41.1901 5.4858,40.6481 5.5048,40.1111 C5.7298,33.6701 5.9458,27.2281 6.1638,20.7881 C6.2668,17.7101 6.3688,14.6331 6.4648,11.5561 L6.5548,11.5561 C7.3468,11.5561 7.9908,10.9111 7.9908,10.1191 L7.9908,8.9481 C7.9908,8.1811 7.3828,7.5561 6.6238,7.5191 Z" id="Fill-1" fill="#000000" mask="url(#mask-2)"></path>
            </g>
            <g id="Group-6" transform="translate(27.000000, 4.000000)">
                <mask id="mask-4" fill="white">
                    <use xlink:href="#path-3"></use>
                </mask>
                <g id="Clip-5"></g>
                <path d="M7.0927,9.1191 C7.0927,9.3531 6.9017,9.5451 6.6667,9.5451 L1.5487,9.5451 C1.3137,9.5451 1.1237,9.3531 1.1237,9.1191 L1.1237,7.9481 C1.1237,7.7141 1.3137,7.5231 1.5487,7.5231 L6.6667,7.5231 C6.9017,7.5231 7.0927,7.7141 7.0927,7.9481 L7.0927,9.1191 Z M5.0487,19.5711 C4.9847,21.4521 4.9227,23.3331 4.8597,25.2141 L4.8527,25.2141 C4.6947,30.0381 4.5357,34.8621 4.3747,39.6861 C4.3647,39.9641 4.3327,40.2411 4.2967,40.5161 C4.2817,40.6321 4.2197,40.7401 4.0827,40.7501 C3.9427,40.7601 3.8707,40.6501 3.8457,40.5421 C3.7927,40.3041 3.7377,40.0591 3.7297,39.8171 C3.5587,34.8791 3.3947,29.9391 3.2277,25.0011 C3.0667,20.2091 2.9087,15.4171 2.7297,10.6261 C2.7287,10.6001 2.7307,10.5801 2.7307,10.5561 L5.3667,10.5561 C5.2527,13.5601 5.1517,16.5661 5.0487,19.5711 Z M4.1077,1.0541 C6.2257,1.0541 6.3657,2.6831 6.3737,2.9541 L6.0257,6.5131 L2.1907,6.5131 L1.8417,2.9531 C1.8477,2.7331 1.9677,1.0541 4.1077,1.0541 Z M7.0357,6.5661 L7.3827,3.0231 L7.3847,2.9741 C7.3847,1.9611 6.6997,0.0431 4.1077,0.0431 C1.5157,0.0431 0.8307,1.9611 0.8307,2.9741 L1.1797,6.5661 C0.5677,6.7301 0.1127,7.2851 0.1127,7.9481 L0.1127,9.1191 C0.1127,9.9111 0.7567,10.5561 1.5487,10.5561 L1.5717,10.5561 C1.6917,14.3861 1.8227,18.2171 1.9507,22.0471 C2.1267,27.3601 2.2927,32.6741 2.4857,37.9861 C2.5177,38.8831 2.4577,39.7891 2.6317,40.6771 C2.8037,41.5571 3.3007,42.0011 4.0787,42.0001 C4.8447,41.9991 5.3127,41.5771 5.5157,40.7231 C5.6427,40.1901 5.5987,39.6481 5.6167,39.1111 C5.8417,32.6701 6.0587,26.2281 6.2757,19.7881 C6.3797,16.7101 6.4817,13.6331 6.5767,10.5561 L6.6667,10.5561 C7.4587,10.5561 8.1037,9.9111 8.1037,9.1191 L8.1037,7.9481 C8.1037,7.2851 7.6487,6.7301 7.0357,6.5661 Z" id="Fill-4" fill="#000000" mask="url(#mask-4)"></path>
            </g>
            <g id="Group-9" transform="translate(11.000000, 0.000000)">
                <mask id="mask-6" fill="white">
                    <use xlink:href="#path-5"></use>
                </mask>
                <g id="Clip-8"></g>
                <path d="M9.5458,11.0977 C9.5458,11.3317 9.3548,11.5237 9.1208,11.5237 L4.0018,11.5237 C3.7678,11.5237 3.5768,11.3317 3.5768,11.0977 L3.5768,9.9267 C3.5768,9.6927 3.7678,9.5007 4.0018,9.5007 L9.1208,9.5007 C9.3548,9.5007 9.5458,9.6927 9.5458,9.9267 L9.5458,11.0977 Z M7.8128,19.0797 C7.7158,21.9907 7.6138,24.8997 7.5138,27.8097 L7.5228,27.8097 C7.3408,33.0567 7.1608,38.3037 6.9778,43.5507 C6.9698,43.7947 6.9618,44.0407 6.8778,44.2777 C6.8248,44.4277 6.7568,44.5457 6.5758,44.5427 C6.3988,44.5397 6.3078,44.4277 6.2718,44.2747 C6.2308,44.1007 6.1898,43.9217 6.1838,43.7437 C6.0148,38.7427 5.8518,33.7407 5.6848,28.7377 C5.5048,23.3357 5.3238,17.9347 5.1408,12.5347 L8.0308,12.5347 C7.9488,14.7157 7.8858,16.8987 7.8128,19.0797 Z M6.5608,1.0107 C9.9868,1.0107 11.4798,2.9447 11.9418,3.7267 L9.0598,8.4907 L4.1908,8.4907 L1.2038,3.7527 C1.7418,3.0347 3.5278,1.0107 6.5608,1.0107 Z M10.0358,8.8287 L13.1008,3.7657 L12.9788,3.5167 C12.6898,2.9297 11.0228,-0.0003 6.5608,-0.0003 C2.3298,-0.0003 0.2528,3.3347 0.1658,3.4777 L0.0028,3.7447 L3.1678,8.7627 C2.8048,9.0247 2.5658,9.4477 2.5658,9.9267 L2.5658,11.0977 C2.5658,11.8647 3.1708,12.4877 3.9288,12.5267 C4.0798,17.0657 4.2408,21.6037 4.3978,26.1417 C4.6008,32.0277 4.7998,37.9127 5.0028,43.7987 C5.0138,44.1267 5.0698,44.4497 5.1798,44.7597 C5.4208,45.4377 5.8908,45.7817 6.5758,45.7857 C7.2748,45.7897 7.7728,45.4277 8.0068,44.7367 C8.1118,44.4237 8.1498,44.0997 8.1608,43.7707 C8.3148,39.2087 8.4718,34.6477 8.6238,30.0857 C8.8178,24.2337 9.0098,18.3797 9.1958,12.5267 C9.9518,12.4867 10.5568,11.8637 10.5568,11.0977 L10.5568,9.9267 C10.5568,9.4847 10.3508,9.0927 10.0358,8.8287 Z" id="Fill-7" fill="#000000" mask="url(#mask-6)"></path>
            </g>
        </g>
    </g>
</svg>