<?xml version="1.0" encoding="UTF-8"?>
<svg width="50px" height="50px" viewBox="0 0 50 50" version="1.1" xmlns="http://www.w3.org/2000/svg" xmlns:xlink="http://www.w3.org/1999/xlink">
    <!-- Generator: Sketch 49.3 (51167) - http://www.bohemiancoding.com/sketch -->
    <title>icon/50px/專業指彩</title>
    <desc>Created with Sketch.</desc>
    <defs>
        <polygon id="path-1" points="4.969988e-05 0.000447619048 17.8814118 0.000447619048 17.8814118 47 4.969988e-05 47"></polygon>
    </defs>
    <g id="icon/50px/專業指彩" stroke="none" stroke-width="1" fill="none" fill-rule="evenodd">
        <rect id="bound" x="0" y="0" width="50" height="50"></rect>
        <g id="Page-1" transform="translate(16.000000, 2.000000)">
            <g id="Group-3">
                <mask id="mask-2" fill="white">
                    <use xlink:href="#path-1"></use>
                </mask>
                <g id="Clip-2"></g>
                <path d="M8.89909412,22.2213762 C10.3920353,22.2213762 11.8839176,22.2202571 13.3758,22.2236143 C13.5918,22.2236143 13.7612118,22.2426381 13.7548588,21.9013286 C13.7495647,21.5868762 13.5981529,21.6025429 13.3969765,21.6036619 C10.4259176,21.6059 7.45485882,21.6059 4.48485882,21.6036619 C4.28474118,21.6025429 4.13121176,21.5846381 4.12591765,21.9002095 C4.11956471,22.2404 4.28685882,22.2247333 4.50391765,22.2236143 C5.96932941,22.2202571 7.43474118,22.2213762 8.89909412,22.2213762 M11.9580353,10.7600905 L11.9580353,19.5793048 C11.9580353,20.4958048 11.9590941,20.4756619 12.8209765,20.5036381 C13.1788588,20.5159476 13.2678,20.4174714 13.2667412,20.0347571 C13.2540353,14.0120429 13.2582706,7.98820952 13.2582706,1.96549524 C13.2582706,1.02997143 13.2550941,1.04675714 12.3805059,1.02549524 C12.0490941,1.01654286 11.9485059,1.10270952 11.9495647,1.46751905 C11.9643882,4.56504286 11.9580353,7.66256667 11.9580353,10.7600905 M5.92274118,10.7522571 L5.92274118,5.07420952 C5.92274118,3.84101905 5.92485882,2.60782857 5.91956471,1.3746381 C5.91850588,1.25154286 5.99050588,1.08928095 5.7798,1.03220952 C4.9518,0.807280952 4.62462353,1.0691381 4.62356471,1.97220952 C4.62356471,2.01585238 4.62356471,2.05837619 4.62356471,2.10201905 L4.62356471,19.5681143 C4.62356471,20.4991619 4.62356471,20.4801381 5.51403529,20.5036381 C5.86556471,20.5137095 5.93227059,20.3906143 5.93015294,20.0448286 C5.91744706,16.9473048 5.92274118,13.8509 5.92274118,10.7522571 M9.42956471,10.7164476 C9.42956471,13.5991143 9.42744706,16.481781 9.43274118,19.3644476 C9.4338,19.7314952 9.27603529,20.2194 9.51215294,20.429781 C9.71227059,20.6110667 10.1601529,20.4611143 10.4947412,20.500281 C10.8759176,20.5450429 10.9923882,20.4286619 10.9913294,19.9989476 C10.9754471,13.8453048 10.9807412,7.6916619 10.9807412,1.5391381 C10.9807412,1.45185238 10.9743882,1.36568571 10.9818,1.27951905 C10.9966235,1.09599524 10.9267412,1.02437619 10.7488588,1.02997143 C10.4640353,1.04228095 10.1770941,1.05682857 9.89438824,1.02773333 C9.53756471,0.990804762 9.41685882,1.09711429 9.42003529,1.50668571 C9.43803529,4.57623333 9.42956471,7.6469 9.42956471,10.7164476 M6.90003529,10.7153286 C6.90003529,13.5991143 6.89791765,16.481781 6.90427059,19.3644476 C6.90532941,19.7303762 6.74650588,20.2194 6.98368235,20.429781 C7.18485882,20.6099476 7.63274118,20.4611143 7.96732941,20.500281 C8.34744706,20.5450429 8.46391765,20.429781 8.46285882,19.9989476 C8.44697647,13.8453048 8.45227059,7.69278095 8.45227059,1.5391381 C8.45227059,1.45185238 8.44591765,1.36456667 8.45332941,1.27951905 C8.46921176,1.09487619 8.39932941,1.02325714 8.22144706,1.02997143 C7.95038824,1.04228095 7.67509412,1.06018571 7.40721176,1.02773333 C7.01438824,0.980733333 6.88521176,1.09487619 6.88838824,1.54920952 C6.91168235,4.60532857 6.90003529,7.66032857 6.90003529,10.7153286 M16.9016824,35.5089476 C16.9016824,32.3532333 16.9059176,29.195281 16.9006235,26.0395667 C16.8985059,24.3878524 15.8852118,23.3281143 14.3202706,23.3281143 C10.7372118,23.3269952 7.15309412,23.3269952 3.56897647,23.3281143 C1.9818,23.3281143 0.980152941,24.3867333 0.979094118,26.072019 C0.978035294,32.3991143 0.978035294,38.7262095 0.979094118,45.0521857 C0.979094118,45.7773286 1.15909412,45.9664476 1.84838824,45.9664476 L16.0207412,45.9664476 C16.7290941,45.9664476 16.9016824,45.7818048 16.9016824,45.0208524 C16.9027412,41.8494714 16.9016824,38.6792095 16.9016824,35.5089476 M0.000741176471,35.519019 C0.000741176471,32.3767333 -0.000317647059,29.2355667 0.0018,26.093281 C0.00285882353,24.1002571 1.02991765,22.7529238 2.87650588,22.3489476 C3.12215294,22.2941143 3.17932941,22.1911619 3.16450588,21.9539238 C3.14650588,21.6831143 3.16132941,21.4089476 3.16132941,21.1359 C3.16027059,20.9367095 3.21532941,20.7274476 3.39109412,20.6692571 C3.68227059,20.573019 3.64732941,20.3570429 3.64732941,20.1321143 C3.64627059,14.0903762 3.64627059,8.05087619 3.64627059,2.01025714 C3.64732941,0.417852381 4.04438824,0.000447619048 5.55427059,0.000447619048 C7.87521176,0.000447619048 10.1972118,0.00156666667 12.5181529,0.000447619048 C12.7627412,0.000447619048 13.0041529,0.00828095238 13.2445059,0.0731857143 C13.7432118,0.205233333 14.0386235,0.535352381 14.1593294,1.05794762 C14.2355647,1.38247143 14.2366235,1.71147143 14.2355647,2.04159048 L14.2355647,20.0761619 C14.2355647,20.3257095 14.1868588,20.5696619 14.5129765,20.6894 C14.7215647,20.7654952 14.7247412,21.0318286 14.7226235,21.254519 C14.7194471,21.5689714 14.6347412,21.9293048 14.7512118,22.1889238 C14.8772118,22.4709238 15.2785059,22.3724476 15.5516824,22.4698048 C16.9768588,22.9778524 17.8768588,24.3341381 17.8779176,26.0395667 C17.8821529,31.7209714 17.8800353,37.4023762 17.8800353,43.086019 C17.8800353,43.7876619 17.8853294,44.4904238 17.8779176,45.1931857 C17.8673294,46.3088762 17.2193294,46.9982095 16.1732118,46.9982095 C11.3545059,47.0015667 6.53474118,47.0015667 1.71497647,46.9982095 C0.647682353,46.9982095 0.00391764706,46.3088762 0.0018,45.1607333 C-0.00137647059,41.9468286 0.000741176471,38.7329238 0.000741176471,35.519019" id="Fill-1" fill="#000000" mask="url(#mask-2)"></path>
            </g>
            <path d="M14.2081428,45 L3.79185724,45 C2.80197946,45 2,44.1894974 2,43.1890996 L2,29 L16,29 L16,43.1890996 C16,44.1894974 15.1980205,45 14.2081428,45" id="Fill-4" fill="#000000"></path>
        </g>
    </g>
</svg>