<?xml version="1.0" encoding="UTF-8"?>
<svg width="102px" height="52px" viewBox="0 0 102 52" version="1.1" xmlns="http://www.w3.org/2000/svg" xmlns:xlink="http://www.w3.org/1999/xlink">
    <!-- Generator: Sketch 49.3 (51167) - http://www.bohemiancoding.com/sketch -->
    <title>LOGO</title>
    <desc>Created with Sketch.</desc>
    <defs></defs>
    <g id="Page-1" stroke="none" stroke-width="1" fill="none" fill-rule="evenodd">
        <g id="1.0-PC-Home-mockup" transform="translate(-132.000000, -9.000000)">
            <g id="Header">
                <g id="LOGO" transform="translate(118.000000, 0.000000)">
                    <g transform="translate(14.444444, 9.777778)" fill="#D59EA5">
                        <polygon id="Fill-1" points="0 25.7738562 9.40112719 25.7911111 9.38323732 35.4185621 23.7235952 35.4444444 23.7422983 25.8169935 32.5985976 25.8334641 32.6164875 16.1699346 0.0187030469 16.1111111"></polygon>
                        <polygon id="Fill-2" points="68.4946237 25.7738562 77.897597 25.7918954 77.8788967 35.4185621 92.2187359 35.4444444 92.2374362 25.8177778 101.091598 25.8342484 101.111111 16.170719 68.5133239 16.1111111"></polygon>
                        <polygon id="Fill-3" points="56.7873012 36.4914602 71.2126643 36.5185185 56.5912298 16.672819 43.5060909 16.6481481 28.8112306 36.439731 43.2357868 36.4659935 50.007913 26.1209541"></polygon>
                        <path d="M22.5033933,2.24226389 L24.6321934,2.24629167 L24.6305855,3.22101389 C24.9481369,2.823875 25.2721197,2.53790278 25.5969064,2.36873611 C25.9233009,2.20118056 26.3204411,2.11579167 26.787523,2.11659722 C27.420214,2.11740278 27.9162372,2.30509722 28.273181,2.686125 C28.6277131,3.06070833 28.806185,3.64634722 28.8045771,4.43498611 L28.7973418,8.23076389 L26.5005209,8.22593056 L26.5061484,4.940875 C26.5069523,4.56468056 26.4394224,4.30045833 26.3011469,4.14418056 C26.1636753,3.98870833 25.9699287,3.90734722 25.7191034,3.90734722 C25.4417484,3.90654167 25.2166487,4.012875 25.0421964,4.22231944 C24.8685481,4.43418056 24.7849396,4.80956944 24.7841357,5.35251389 L24.7793121,8.22270833 L22.4921383,8.21868056 L22.5033933,2.24226389 Z" id="Fill-4"></path>
                        <path d="M34.2356702,5.40511667 C33.9213345,5.51708889 33.5917243,5.61375556 33.2516629,5.70317222 C32.7861889,5.82481111 32.4927554,5.94483889 32.3689505,6.06728333 C32.241126,6.18731111 32.1776158,6.3307 32.1776158,6.48617222 C32.1776158,6.66822778 32.2387143,6.81483889 32.3649309,6.93003333 C32.4879318,7.04361667 32.6752469,7.10081111 32.9148173,7.10081111 C33.1704662,7.10161667 33.4084288,7.0412 33.6270971,6.91875556 C33.8473732,6.79711667 34.0017273,6.64325556 34.094179,6.46603333 C34.1866306,6.28800556 34.2348663,6.05600556 34.2348663,5.77083889 L34.2356702,5.40511667 Z M32.2547928,4.19839444 L30.0697178,3.96236667 C30.1533263,3.58053333 30.2731115,3.27845 30.4282695,3.05933889 C30.5842315,2.84022778 30.8085272,2.65011667 31.1019608,2.49061667 C31.3117858,2.37300556 31.598788,2.28358889 31.9653789,2.22075556 C32.3327738,2.15792222 32.7283061,2.12811667 33.1543877,2.12892222 C33.8417457,2.12972778 34.3916321,2.16758889 34.8056548,2.24733889 C35.2236971,2.32306111 35.5677781,2.48417222 35.845937,2.72745 C36.0388796,2.89742222 36.1924297,3.13989444 36.3049796,3.44842222 C36.4183334,3.75775556 36.4721965,4.05258889 36.4713926,4.33292222 L36.466569,6.97353333 C36.4657651,7.25386667 36.4826476,7.47378333 36.5180204,7.63408889 C36.5566089,7.79197778 36.6313742,7.99578333 36.7511594,8.24550556 L34.6046729,8.24147778 C34.5194566,8.08842222 34.4639856,7.97242222 34.4366521,7.89267222 C34.4109264,7.8097 34.3852007,7.68161667 34.3578672,7.50922778 C34.0580022,7.79761667 33.7621569,8.00383889 33.4663116,8.12628333 C33.06274,8.29061667 32.5916384,8.37278333 32.0554188,8.37197778 C31.3455508,8.37036667 30.8045076,8.20442222 30.4347009,7.87495 C30.0673061,7.54225556 29.8832067,7.13625556 29.8840106,6.65131111 C29.8848145,6.19617222 30.0182665,5.82481111 30.2883861,5.53239444 C30.5536822,5.24078333 31.0432741,5.02328333 31.7595735,4.8807 C32.6165602,4.71153333 33.1704662,4.5907 33.4269191,4.52303333 C33.6809602,4.45536667 33.9518838,4.36433889 34.237278,4.25156111 C34.238082,3.97042222 34.1801992,3.77467222 34.0636297,3.66189444 C33.9462563,3.54831111 33.7436666,3.49111667 33.4526448,3.49031111 C33.0788185,3.49031111 32.79664,3.54750556 32.6101288,3.66753333 C32.46301,3.76258889 32.3440288,3.9382 32.2547928,4.19839444 Z" id="Fill-6"></path>
                        <path d="M37.9290739,2.271425 L40.2162477,2.27545278 L40.2049927,8.25186944 L37.917819,8.24784167 L37.9290739,2.271425 Z M37.9330936,-0.000241666667 L40.2202673,0.00459166667 L40.2170516,1.56173056 L37.9306818,1.55689722 L37.9330936,-0.000241666667 Z" id="Fill-8"></path>
                        <polygon id="Fill-11" points="41.7595473 0.00733055556 44.0491329 0.0113583333 44.0338583 8.25944167 41.7434688 8.25460833"></polygon>
                        <path d="M48.9285709,6.61071111 L51.1980582,6.39804444 C51.2905099,6.66871111 51.4215501,6.86204444 51.5903749,6.97885 C51.7559839,7.09726667 51.9802797,7.15607222 52.2632622,7.15607222 C52.5711664,7.15687778 52.808325,7.09162778 52.975542,6.95951667 C53.1073861,6.86285 53.1733081,6.74201667 53.1733081,6.59701667 C53.1733081,6.43107222 53.0880918,6.30218333 52.9176592,6.21357222 C52.7938544,6.14751667 52.4642441,6.06937778 51.9320441,5.97432222 C51.1393715,5.83415556 50.5902891,5.70446111 50.2791691,5.58685 C49.9712649,5.46843333 49.7132041,5.26946111 49.5001634,4.98590556 C49.2887304,4.70476667 49.1850238,4.38254444 49.1858277,4.02246111 C49.1866316,3.63015556 49.3015933,3.29343333 49.5299087,3.00585 C49.759028,2.72390556 50.0709519,2.51123889 50.4769353,2.37026667 C50.8740755,2.23251667 51.4127069,2.16323889 52.0863981,2.16404444 C52.797874,2.16565556 53.3244465,2.21882222 53.6620961,2.32998889 C53.9981378,2.43954444 54.2819242,2.6071 54.5110435,2.83829444 C54.7377511,3.06546111 54.9218505,3.37721111 55.0721849,3.76951667 L52.9023846,3.97654444 C52.8485214,3.78643333 52.7552658,3.64465556 52.6234217,3.55523889 C52.4449498,3.43440556 52.2278894,3.37237778 51.9714365,3.37157222 C51.7133758,3.37157222 51.5260607,3.41829444 51.4078833,3.50932222 C51.2889021,3.60276667 51.2302153,3.71473889 51.2302153,3.84201667 C51.2294114,3.99185 51.3041767,4.09898889 51.4545111,4.17551667 C51.6040416,4.24882222 51.9320441,4.31729444 52.431283,4.38012778 C53.1893867,4.46873889 53.7553516,4.58796111 54.1267662,4.74504444 C54.4965728,4.89890556 54.7795553,5.11721111 54.9749097,5.40237778 C55.1742837,5.68512778 55.2699511,5.99929444 55.2691471,6.34085 C55.2683432,6.68804444 55.1646366,7.02073889 54.9556154,7.3486 C54.7449864,7.67323889 54.4193958,7.93262778 53.9708042,8.12273889 C53.5230166,8.31526667 52.9168553,8.41112778 52.1426731,8.40951667 C51.0517434,8.4071 50.2775613,8.25001667 49.814499,7.93987778 C49.3546525,7.62812778 49.0580032,7.18346111 48.9285709,6.61071111" id="Fill-13"></path>
                        <path d="M56.3695631,0.0325444444 L58.655129,0.0365722222 L58.6486976,3.07512778 C58.9606215,2.75451667 59.2709375,2.52493333 59.5796457,2.38798889 C59.8843342,2.24701667 60.2477094,2.18015556 60.6665556,2.18096111 C61.2871877,2.18176667 61.7807992,2.37107222 62.1353312,2.74968333 C62.492275,3.12990556 62.6715509,3.71232222 62.669943,4.49854444 L62.6627076,8.29432222 L60.3642789,8.28948889 L60.3707103,5.00443333 C60.3715143,4.62904444 60.3039843,4.36401667 60.1665127,4.20773889 C60.0274333,4.05226667 59.8320789,3.97171111 59.5812535,3.97090556 C59.3014867,3.97090556 59.0787988,4.07723889 58.9059544,4.28587778 C58.73311,4.49773889 58.6454819,4.87312778 58.644678,5.41687778 L58.6390505,8.28707222 L56.3542885,8.28223889 L56.3695631,0.0325444444 Z" id="Fill-15"></path>
                        <path d="M66.0433836,5.32609167 C66.0425797,5.85936944 66.150306,6.251675 66.3633468,6.505425 C66.5771915,6.76159167 66.8505268,6.88806389 67.1729018,6.88886944 C67.5017081,6.889675 67.7750435,6.76400833 67.9856725,6.51670278 C68.1979093,6.26375833 68.3048317,5.86339722 68.3064395,5.30675833 C68.3072435,4.78798056 68.201929,4.402925 67.9864764,4.14836944 C67.7758474,3.89461944 67.5105513,3.76895278 67.1986274,3.76814722 C66.8625857,3.76734167 66.5884465,3.895425 66.371386,4.15159167 C66.1543256,4.40856389 66.0441875,4.79925833 66.0433836,5.32609167 M63.7513863,5.32448056 C63.7529941,4.41259167 64.0608984,3.663425 64.6767068,3.07375833 C65.2917114,2.48409167 66.1205606,2.19086944 67.1656664,2.19248056 C68.3611066,2.19489722 69.2598976,2.54370278 69.8692746,3.23809167 C70.3604743,3.79875833 70.6048683,4.48750833 70.6032604,5.30353611 C70.6016526,6.22348056 70.2937483,6.97586944 69.6835674,7.56231389 C69.0766021,8.14875833 68.2324782,8.43956389 67.159235,8.43795278 C66.2001495,8.43553611 65.4259673,8.19145278 64.8382963,7.70409167 C64.1099379,7.09911944 63.7489745,6.30484167 63.7513863,5.32448056" id="Fill-17"></path>
                        <path d="M74.0065267,5.34333056 C74.0057228,5.81699722 74.1013902,6.169025 74.3023721,6.39780278 C74.4985304,6.62819167 74.7501597,6.74096944 75.0548482,6.741775 C75.3185364,6.74258056 75.5420283,6.63463611 75.722108,6.41794167 C75.9037957,6.19641389 75.9946395,5.82344167 75.9954434,5.29741389 C75.9962473,4.81408056 75.90058,4.45721944 75.7148727,4.23085833 C75.5275576,4.00369167 75.2992422,3.89010833 75.0299265,3.89010833 C74.7389047,3.88930278 74.4937068,4.001275 74.2999603,4.23246944 C74.1046059,4.45883056 74.0081346,4.83180278 74.0065267,5.34333056 Z M71.7056862,10.5866917 L71.7209608,2.33538611 L73.8610159,2.33941389 L73.859408,3.22471944 C74.1552533,2.85174722 74.4269808,2.60041389 74.6729827,2.471525 C75.0066126,2.29349722 75.3756153,2.20810833 75.7815987,2.20891389 C76.5782908,2.210525 77.1932954,2.515025 77.6290241,3.12724722 C78.063145,3.74188611 78.2802054,4.49749722 78.2785975,5.39891389 C78.2769897,6.39458056 78.0390271,7.14858056 77.563906,7.67380278 C77.0831573,8.19660833 76.4842313,8.45519167 75.7566769,8.45358056 C75.4061645,8.45358056 75.0845935,8.39316389 74.7967875,8.27233056 C74.5049618,8.15149722 74.2452932,7.97105278 74.0185857,7.73744167 L74.0137621,10.5907194 L71.7056862,10.5866917 Z" id="Fill-19"></path>
                        <polygon id="Fill-21" points="29.3784293 43.4957037 36.6790864 43.5089832 36.6758452 45.3610774 34.2263573 45.3563906 34.2158236 50.997037 31.8149527 50.9923502 31.8262966 45.3517037 29.3751881 45.347798"></polygon>
                        <path d="M40.9016373,48.4338667 C40.6026426,48.5354155 40.2955451,48.624466 39.9714315,48.7041428 C39.5322577,48.8150653 39.2575715,48.9252067 39.1392701,49.034567 C39.0193481,49.1486141 38.9601973,49.2751596 38.9601973,49.4157657 C38.9601973,49.5813684 39.0144864,49.7133818 39.1335981,49.8196175 C39.2535201,49.9219475 39.4277311,49.9742842 39.658662,49.9750653 C39.8968854,49.9758465 40.1229546,49.9211663 40.3287667,49.8086815 C40.5337685,49.6961966 40.6820504,49.5587152 40.7687508,49.3970182 C40.8570717,49.2361024 40.9008271,49.0251933 40.9008271,48.7666343 L40.9016373,48.4338667 Z M39.0315023,47.3363582 L36.9677095,47.124668 C37.0479275,46.7778397 37.1621776,46.5020956 37.3064081,46.304466 C37.4555003,46.1052741 37.6669844,45.9310788 37.9416706,45.7857859 C38.1393798,45.6811125 38.4124455,45.5990923 38.759247,45.5428498 C39.107669,45.4866074 39.4795893,45.4569239 39.8831106,45.4577051 C40.5289068,45.4584862 41.0499193,45.4928566 41.4412864,45.5647219 C41.834274,45.6342438 42.1600081,45.781099 42.42254,46.0045064 C42.6064745,46.1552673 42.7498947,46.3755502 42.853611,46.6544189 C42.9613788,46.9364121 43.0124267,47.2066882 43.0116164,47.4597791 L43.007565,49.860237 C43.0067547,50.1133279 43.0253912,50.3156444 43.0578026,50.4601562 C43.0910242,50.604668 43.1623292,50.7897993 43.2757689,51.0132067 L41.2492491,51.009301 C41.1698413,50.8702572 41.1171728,50.7655838 41.0936746,50.6898128 C41.0677455,50.6163852 41.0442473,50.5015569 41.0199388,50.3461091 C40.7371497,50.6085737 40.4527401,50.7952673 40.175623,50.906971 C39.7923588,51.0546074 39.3491336,51.1303785 38.8443268,51.1295973 C38.1717912,51.1288162 37.6621227,50.9757118 37.3161315,50.6757522 C36.96933,50.3750114 36.7926881,50.0063111 36.7934984,49.5673077 C36.7943087,49.153301 36.9223336,48.8150653 37.1727113,48.5494761 C37.4247095,48.2854492 37.8873816,48.0870384 38.5639686,47.9581495 C39.3750626,47.8034828 39.898506,47.6972471 40.13835,47.631631 C40.3798146,47.5699205 40.6334334,47.4886815 40.9032579,47.3855704 C40.9040682,47.1316983 40.8473483,46.9528162 40.7412011,46.8497051 C40.629382,46.7465939 40.438155,46.6934761 40.1626585,46.6926949 C39.8077542,46.6926949 39.5452222,46.7497185 39.3661495,46.8559542 C39.2292116,46.9434424 39.1182027,47.1035771 39.0315023,47.3363582 Z" id="Fill-23"></path>
                        <path d="M44.3900712,45.5869845 L46.5470467,45.5908902 L46.5357027,51.0190653 L44.3795375,51.0151596 L44.3900712,45.5869845 Z M44.3941226,43.5232 L46.5510981,43.5271057 L46.547857,44.9433212 L44.3908815,44.9394155 L44.3941226,43.5232 Z" id="Fill-25"></path>
                        <polygon id="Fill-27" points="47.2952628 45.5919838 49.3833641 45.5958896 50.2779175 49.0173037 51.4260896 45.5997953 53.3764427 45.6029199 54.5594571 49.0321455 55.4750778 45.6068256 57.5502146 45.6107313 55.4653544 51.0350007 53.5441715 51.0318761 52.4105844 47.7659098 51.2996853 51.0279704 49.3728304 51.0248458"></polygon>
                        <path d="M61.8855571,48.4716741 C61.588183,48.5732229 61.2786545,48.6622734 60.9577822,48.7419502 C60.5186083,48.8528727 60.2414913,48.9637953 60.1240001,49.0723744 C60.0032678,49.1864215 59.9416863,49.312967 59.9416863,49.4543542 C59.9416863,49.6191758 60.000837,49.7519704 60.1199487,49.8574249 C60.2374398,49.9597549 60.4124611,50.0128727 60.6425817,50.0128727 C60.8824258,50.0136539 61.1052538,49.9589737 61.314307,49.84727 C61.5217397,49.734004 61.6659702,49.5965226 61.7534809,49.4348256 C61.8409915,49.2739098 61.8847468,49.0630007 61.8847468,48.8044418 L61.8855571,48.4716741 Z M60.0178529,47.3741657 L57.9540601,47.1632566 C58.031037,46.8156471 58.1436665,46.539903 58.2919484,46.3422734 C58.4386098,46.1438626 58.6500939,45.9688862 58.9264006,45.8235933 C59.1249202,45.7189199 59.3979858,45.6376808 59.743977,45.5806572 C60.0899682,45.5244148 60.4651296,45.4947313 60.8678406,45.4955125 C61.5136368,45.4970747 62.0346493,45.5314451 62.4284473,45.6033104 C62.8190041,45.6720512 63.1463587,45.8189064 63.4072701,46.0430949 C63.589584,46.1930747 63.7330042,46.4133576 63.8407719,46.6922263 C63.9461088,46.9742195 63.9971567,47.2452768 63.9963464,47.4983677 L63.992295,49.8980444 C63.992295,50.1519165 64.0076904,50.354233 64.0425326,50.4987448 C64.0733234,50.6424754 64.1462489,50.8276067 64.2613092,51.0510141 L62.23641,51.0478896 C62.1561919,50.9080646 62.1043337,50.8033912 62.0775944,50.7276202 C62.0524756,50.6541926 62.0273568,50.5401455 62.0038585,50.3839165 C61.7210695,50.6463811 61.439901,50.8338559 61.1587325,50.9447785 C60.7778991,51.093196 60.3354842,51.168967 59.8282465,51.1674047 C59.1573315,51.1666236 58.647663,51.0135192 58.3000513,50.7135596 C57.9516292,50.4136 57.7790388,50.0441185 57.7798491,49.6051152 C57.7806593,49.1918896 57.9070636,48.8528727 58.1598722,48.5880646 C58.4086293,48.3240377 58.8729219,48.1256269 59.5486986,47.996738 C60.3589824,47.8412902 60.883236,47.7358357 61.1238903,47.6702195 C61.3637343,47.6085091 61.6189737,47.52727 61.887988,47.4241589 C61.887988,47.1695057 61.8320784,46.9906236 61.7243106,46.8882936 C61.6149223,46.7844013 61.4236953,46.7312835 61.1465783,46.7312835 C60.7941048,46.7305024 60.529142,46.7875259 60.349259,46.8937616 C60.2139416,46.982031 60.1021224,47.1413845 60.0178529,47.3741657 Z" id="Fill-29"></path>
                        <path d="M65.2967709,45.6247919 L67.3046542,45.6286976 L67.3030336,46.5137347 C67.6036489,46.1520646 67.9091259,45.895068 68.2146029,45.7419636 C68.5241313,45.587297 68.8992927,45.5107448 69.3408974,45.5107448 C69.9388868,45.5123071 70.4048,45.6818155 70.7434987,46.0278626 C71.0797665,46.3692229 71.2466849,46.8980579 71.2450643,47.6143677 L71.2385821,51.063903 L69.0710729,51.0599973 L69.0767449,48.0775865 C69.0775552,47.7338828 69.0103016,47.4940714 68.8798459,47.351903 C68.7518211,47.2097347 68.5670764,47.1386505 68.3288529,47.1378694 C68.0695621,47.1378694 67.8556472,47.233169 67.6927801,47.4229872 C67.5315337,47.6135865 67.4472641,47.9580714 67.4456436,48.4517549 L67.4407819,51.0568727 L65.2854269,51.052967 L65.2967709,45.6247919 Z" id="Fill-31"></path>
                    </g>
                    <rect id="bound" x="0" y="0" width="130" height="72"></rect>
                </g>
            </g>
        </g>
    </g>
</svg>