<?xml version="1.0" encoding="UTF-8"?>
<svg width="50px" height="50px" viewBox="0 0 50 50" version="1.1" xmlns="http://www.w3.org/2000/svg" xmlns:xlink="http://www.w3.org/1999/xlink">
    <!-- Generator: Sketch 49.3 (51167) - http://www.bohemiancoding.com/sketch -->
    <title>icon/50px/手足保養</title>
    <desc>Created with Sketch.</desc>
    <defs>
        <polygon id="path-1" points="0 0 50 0 50 50 0 50"></polygon>
    </defs>
    <g id="icon/50px/手足保養" stroke="none" stroke-width="1" fill="none" fill-rule="evenodd">
        <g id="Page-1">
            <mask id="mask-2" fill="white">
                <use xlink:href="#path-1"></use>
            </mask>
            <g id="bound"></g>
            <path d="M24.759745,46.9164976 L25.8810159,46.9164976 C28.4658288,46.9164976 31.0511974,46.9170532 33.6360103,46.9159419 C34.3483341,46.9153863 34.5022449,46.7564754 34.5044675,46.0330419 C34.5050231,45.8457937 34.5044675,45.6591012 34.5044675,45.4718531 C34.5039118,44.5328341 34.3872285,44.4133732 33.467653,44.4133732 C27.6751606,44.4128175 21.8821125,44.4128175 16.0890645,44.4133732 C15.9640466,44.4133732 15.8395845,44.4094837 15.7151223,44.4161513 C15.2828384,44.4394879 15.0655852,44.6734092 15.0594732,45.1029131 C15.0555838,45.4146229 15.0578063,45.7257771 15.0589176,46.0374869 C15.0600289,46.7598092 15.2122728,46.9159419 15.9301529,46.9159419 C18.8733503,46.9170532 21.8165476,46.9164976 24.759745,46.9164976 Z M24.7797478,43.3454475 C27.42957,43.3454475 30.0793922,43.3343348 32.7292144,43.3565601 C33.160387,43.3604496 33.2465103,43.2370992 33.2142835,42.8342656 C33.1281601,41.7630061 33.0825981,40.6878573 33.0237008,39.6143753 C32.7619968,34.8687181 32.5047379,30.1225054 32.2385889,25.3768482 C31.9424356,20.0866712 31.6373921,14.7970498 31.3390162,9.50687284 C31.2984549,8.78955129 31.1223186,8.61230452 30.3933258,8.61174889 C28.2735792,8.61008199 26.1538326,8.61119326 24.0335303,8.61119326 C22.3816282,8.61119326 20.7291704,8.60841509 19.0767126,8.61230452 C18.5032975,8.61397142 18.2627077,8.81288785 18.2338147,9.31740216 C18.0443432,12.6156367 17.8593168,15.9144268 17.6748461,19.2126613 C17.4742619,22.7914902 17.2775672,26.3703191 17.0780943,29.949148 C16.8380601,34.2591893 16.6019154,38.5692306 16.3457677,42.8781606 C16.3207642,43.2948849 16.4591172,43.3560045 16.8302812,43.353782 C19.4801034,43.3387799 22.1299256,43.3454475 24.7797478,43.3454475 Z M24.7769696,47.998314 C21.9093386,47.998314 19.041152,47.998314 16.1724097,47.998314 C14.5282864,47.998314 14.0026559,47.467685 14.0026559,45.8085664 C14.0026559,45.5902028 14.0093235,45.3718392 14.0015447,45.1540313 C13.9743186,44.3672557 14.3065881,43.792176 15.0316915,43.4860225 C15.2695032,43.385453 15.254501,43.2232083 15.2650581,43.0426278 C15.3817414,41.0356832 15.4989803,39.0287386 15.6123298,37.0217941 C15.8534753,32.7589815 16.0929539,28.4956134 16.3313212,24.2316896 C16.5313497,20.6528607 16.7269332,17.0745874 16.9269617,13.4957585 C17.0064175,12.0638936 17.0742049,10.631473 17.1797755,9.2018306 C17.2570087,8.1639091 17.9587754,7.54604576 19.0078139,7.53326621 C19.5223317,7.52659862 20.0368495,7.52048667 20.5508116,7.53604438 C20.8019585,7.54437886 20.8730798,7.45158824 20.8658565,7.21211063 C20.85141,6.72926599 20.8480762,6.24531009 20.8669678,5.76302108 C20.8769692,5.49965128 20.7608416,5.46520206 20.5352538,5.45742321 C18.9250243,5.40130433 18.767224,5.23239205 18.7677797,3.61883528 C18.7677797,3.44770047 18.7622233,3.2754544 18.7711135,3.10431959 C18.8055628,2.46034152 19.2317347,2.00916794 19.8718259,2.00750104 C23.1450703,1.99749965 26.4183147,1.99749965 29.6921148,2.00750104 C30.3310947,2.00972357 30.7633786,2.46145279 30.7883821,3.10709775 C30.8044956,3.52715592 30.8050512,3.94888098 30.7872709,4.36949478 C30.7594891,5.00958342 30.3216489,5.42964158 29.6787795,5.46131264 C28.7008623,5.50965266 28.7008623,5.50965266 28.7008623,6.46811872 C28.7008623,7.53215495 28.7008623,7.53159932 29.7637916,7.53215495 C30.059945,7.53215495 30.3566539,7.52382046 30.6522516,7.53437748 C31.610166,7.56827106 32.3119327,8.20169211 32.3769419,9.1607138 C32.5125168,11.1509894 32.6158649,13.1429319 32.7286587,15.1348744 C32.9698042,19.3976869 33.2092828,23.6610551 33.4476501,27.9244232 C33.6476786,31.5032521 33.8438177,35.082081 34.0432906,38.6609099 C34.1227464,40.0927749 34.2127592,41.5235285 34.2844361,42.9553935 C34.2988826,43.2415442 34.3644475,43.4149016 34.6600452,43.5526984 C35.2395722,43.8232914 35.5446157,44.3211382 35.5557284,44.9734507 C35.5629517,45.3785068 35.5618404,45.7841185 35.5585066,46.1891746 C35.5490608,47.3232205 34.8906336,47.9922021 33.7554718,47.9960915 C31.5423785,48.0033147 29.3287296,47.998314 27.1150807,47.998314 L24.7769696,47.998314 Z" id="Fill-1" fill="#000000" mask="url(#mask-2)"></path>
        </g>
    </g>
</svg>