<?xml version="1.0" encoding="UTF-8"?>
<svg width="44px" height="44px" viewBox="0 0 44 44" version="1.1" xmlns="http://www.w3.org/2000/svg" xmlns:xlink="http://www.w3.org/1999/xlink">
    <!-- Generator: Sketch 50.2 (55047) - http://www.bohemiancoding.com/sketch -->
    <title>icon/44px/bag</title>
    <desc>Created with Sketch.</desc>
    <defs></defs>
    <g id="icon/44px/bag" stroke="none" stroke-width="1" fill="none" fill-rule="evenodd">
        <rect id="bound" x="0" y="0" width="44" height="44"></rect>
        <g id="bag" transform="translate(14.000000, 11.000000)" stroke="#000000">
            <path d="M2.33363056,5.5 C2.07261958,5.5 1.85552183,5.7007697 1.83515506,5.96098484 L0.582851798,21.9609848 C0.58158157,21.9804726 0.58158157,21.9804726 0.581327292,22 C0.581327292,22.2761424 0.805184917,22.5 1.08132729,22.5 L15.9159121,22.5 C15.9360749,22.4997289 15.9360749,22.4997289 15.9561941,22.4983747 C16.2314388,22.4761276 16.4365339,22.2349627 16.4142868,21.959718 L15.1210583,5.95971798 C15.1000696,5.70004229 14.8832061,5.5 14.6226836,5.5 L2.33363056,5.5 Z" id="Rectangle"></path>
            <g id="Group-4" transform="translate(4.000000, 0.000000)">
                <circle id="Oval-3" cx="1" cy="9" r="1"></circle>
                <circle id="Oval-3-Copy" cx="8" cy="9" r="1"></circle>
                <path d="M1,8.09931954 L1,4.19073409 C1,1.39691136 2.20195705,0 4.60587114,0 C7.00978524,0 8.14116153,1.39691136 8,4.19073409 L8,8.09931954" id="Path-4"></path>
            </g>
        </g>
    </g>
</svg>