<?xml version="1.0" encoding="UTF-8"?>
<svg width="50px" height="50px" viewBox="0 0 50 50" version="1.1" xmlns="http://www.w3.org/2000/svg" xmlns:xlink="http://www.w3.org/1999/xlink">
    <!-- Generator: Sketch 49.3 (51167) - http://www.bohemiancoding.com/sketch -->
    <title>icon/50px/美甲設備</title>
    <desc>Created with Sketch.</desc>
    <defs>
        <polygon id="path-1" points="0.000121114829 0.0335815217 31.4544 0.0335815217 31.4544 37 0.000121114829 37"></polygon>
    </defs>
    <g id="icon/50px/美甲設備" stroke="none" stroke-width="1" fill="none" fill-rule="evenodd">
        <rect id="bound" x="0" y="0" width="50" height="50"></rect>
        <g id="美甲設備" transform="translate(9.000000, 7.000000)">
            <g id="Group-3">
                <mask id="mask-2" fill="white">
                    <use xlink:href="#path-1"></use>
                </mask>
                <g id="Clip-2"></g>
                <path d="M15.7424,17.3501848 C20.236,17.3501848 24.7288,17.3469674 29.2224,17.3566196 C29.5064,17.3566196 29.5928,17.2922717 29.592,16.9930543 C29.5824,11.8412065 29.5856,6.69096739 29.5848,1.54072826 C29.5848,1.02272826 29.4448,0.88598913 28.9232,0.88598913 C20.1336,0.885184783 11.3448,0.885184783 2.556,0.88598913 C2.0088,0.88598913 1.8792,1.01548913 1.8784,1.5616413 C1.8784,6.70061957 1.8816,11.8379891 1.8712,16.9769674 C1.8704,17.2970978 1.964,17.3574239 2.2624,17.3574239 C6.756,17.3469674 11.2488,17.3501848 15.7424,17.3501848 Z M15.7312,33.0631196 C20.5208,33.0631196 25.3088,33.0631196 30.0984,33.0623152 C30.5536,33.0623152 30.628,33.0035978 30.604,32.6376196 C30.5064,31.1399239 30.4048,29.6414239 30.304,28.1445326 C30.0912,25.000337 29.8696,21.85775 29.6752,18.7119457 C29.652,18.3282717 29.5528,18.2301413 29.1728,18.2309457 C20.2112,18.2414022 11.2504,18.2389891 2.2896,18.2389891 C2.2152,18.2389891 2.1408,18.2454239 2.0672,18.2381848 C1.8776,18.2180761 1.8152,18.2985109 1.8032,18.4899457 C1.66,20.7437283 1.5088,22.9967065 1.3584,25.2488804 C1.1968,27.6619239 1.0352,30.0757717 0.868,32.4896196 C0.832,33.0180761 0.8616,33.0631196 1.4016,33.0631196 L15.7312,33.0631196 Z M15.7336,36.9987935 L1.5856,36.9987935 C1.4496,36.9987935 1.3128,37.0044239 1.1784,36.993163 C0.484,36.9320326 0.0336,36.4429891 0.0144,35.7407935 C-0.0496,33.380837 0.1128,31.0281196 0.2776,28.6754022 C0.4464,26.2623587 0.584,23.8460978 0.7704,21.4338587 C1.2776,14.8760109 0.9376,8.30770652 1.0384,1.74583696 C1.0416,1.55922826 1.036,1.37181522 1.0544,1.18681522 C1.1104,0.614119565 1.5528,0.148402174 2.1208,0.0623369565 C2.2784,0.0390108696 2.4408,0.0341847826 2.6008,0.0341847826 C11.3536,0.0333804348 20.1064,0.0333804348 28.8592,0.0341847826 C29.0072,0.0341847826 29.156,0.0357934783 29.3024,0.0550978261 C29.9072,0.136336957 30.3608,0.61251087 30.4128,1.22059783 C30.4264,1.38066304 30.424,1.5431413 30.424,1.70401087 C30.4248,6.16009783 30.4488,10.6169891 30.4144,15.0722717 C30.3944,17.7338587 30.6456,20.3769457 30.804,23.0272717 C30.9488,25.4539891 31.1104,27.8815109 31.2952,30.3058152 C31.428,32.0528587 31.4672,33.8007065 31.4512,35.5509674 C31.4424,36.5435326 30.992,36.9979891 29.992,36.9987935 C25.2392,36.9995978 20.4864,36.9987935 15.7336,36.9987935 Z" id="Fill-1" fill="#000000" mask="url(#mask-2)"></path>
            </g>
            <path d="M24.9084973,27.8683519 C24.4247741,27.8683519 23.9410508,27.8780395 23.4573276,27.8643154 C23.2515882,27.8586643 23.1856259,27.924863 23.1903375,28.1379906 C23.2029018,28.7095601 23.203687,29.2819369 23.1903375,29.8535064 C23.1848407,30.0763216 23.2696493,30.1207232 23.4651803,30.1191086 C24.3965045,30.1142648 25.3278288,30.1296035 26.259153,30.1247597 C26.7758574,30.1223378 27.1198034,29.785693 27.1677046,29.2552959 C27.1834099,29.0833407 27.1834099,28.9065417 27.1661341,28.7337792 C27.1158771,28.205804 26.7703605,27.8796541 26.2513004,27.8707738 C25.8036993,27.8627008 25.3560983,27.8691592 24.9084973,27.8683519 M7.09947305,30.1287962 C7.5714173,30.1287962 8.04336154,30.1199159 8.51530579,30.1328327 C8.72261574,30.1384838 8.81841807,30.0956968 8.81056542,29.8494699 C8.79328959,29.2908172 8.79564538,28.7297426 8.81056542,28.17109 C8.81606227,27.943431 8.75010001,27.8723884 8.52472897,27.8748103 C7.60518369,27.8836906 6.68563841,27.8667373 5.7668784,27.8707738 C5.1480896,27.874003 4.82613096,28.2598932 4.82377517,28.9751623 C4.82063411,29.72676 5.13081377,30.1142648 5.75666995,30.1263743 C6.20427098,30.1352546 6.65187202,30.1279889 7.09947305,30.1287962 M24.7875665,30.9909942 C24.2904937,30.9918015 23.7942063,30.9942234 23.2971336,30.9909942 C22.8668084,30.987765 22.5417087,30.8053149 22.4097841,30.3669501 C22.3626682,30.2071044 22.2833565,30.176427 22.1498614,30.1836927 C22.089396,30.1877292 22.0289306,30.1845 21.9684652,30.1845 C17.9832455,30.1845 13.9980258,30.1853073 10.0135913,30.1804635 C9.77958239,30.1804635 9.62331466,30.1941876 9.53457972,30.4832016 C9.42621315,30.8376069 9.10975137,30.9853431 8.7571674,30.987765 C7.74024926,30.9950307 6.7217606,31.0135987 5.70484246,30.9829212 C4.68949486,30.9538584 4.00631434,30.1917657 4.00238801,29.1406591 C4.00081748,28.9170366 3.99060904,28.6885703 4.02908702,28.4705989 C4.17985789,27.6092081 4.86146789,27.0271437 5.75666995,27.011805 C6.7374659,26.9964663 7.71826184,27.0085758 8.69984306,27.0085758 C9.13252405,27.0085758 9.45448269,27.1934478 9.588763,27.6293907 C9.63666416,27.7868145 9.71519066,27.8199138 9.8486857,27.8134554 C9.90836584,27.8102262 9.96961651,27.8134554 10.0300819,27.8134554 C14.0153016,27.8134554 17.9997361,27.8118408 21.9849558,27.8166846 C22.21975,27.8174919 22.3760178,27.7997313 22.4639674,27.5131392 C22.5676224,27.1748799 22.8668084,27.0166488 23.2068281,27.0142269 C24.2606537,27.0069612 25.3160498,26.9811275 26.3675196,27.0247218 C27.3302544,27.0650869 27.9890918,27.8287941 27.9977297,28.821775 C27.9993002,29.0575071 28.0095086,29.2980829 27.9686749,29.5289712 C27.8155482,30.3919765 27.1339382,30.9651606 26.2403067,30.9885723 C25.7565834,31.0022964 25.2712897,30.9909942 24.7875665,30.9909942" id="Fill-4" fill="#000000"></path>
            <path d="M7.89274087,25.2420001 C8.56214407,25.2674079 9.78825347,24.3891448 9.95602794,23.7802044 C10.0060213,23.5989621 9.96789078,23.4388929 9.79079551,23.3474248 C9.61454758,23.2559567 9.44507841,23.2999969 9.34763364,23.4643007 C8.99767982,24.0605372 8.48927233,24.4204811 7.81224302,24.560224 C7.62074286,24.6000296 7.53177155,24.7524764 7.56142866,24.942188 C7.5919331,25.1327466 7.72750844,25.2267555 7.89274087,25.2420001 M10.999958,22.5275996 C10.9906372,24.4602867 9.43999434,25.9991527 7.5012671,25.9999997 C5.55999783,26.0008466 3.99156071,24.4238688 4.00003417,22.4810187 C4.00850763,20.555107 5.60999123,18.9823639 7.54702378,19.0001494 C9.46626206,19.0179348 11.0092788,20.5949126 10.999958,22.5275996" id="Fill-6" fill="#000000"></path>
            <path d="M24.890963,25.2426085 C25.5568175,25.2620897 26.7572192,24.3972932 26.9520621,23.7755885 C27.0122092,23.5824704 26.9452849,23.4376318 26.7792449,23.3486958 C26.6055806,23.2538308 26.4344577,23.2961812 26.3378834,23.4630421 C25.9888604,24.0618776 25.4763389,24.4184685 24.802013,24.560766 C24.6097115,24.6014225 24.5266915,24.7513431 24.5546472,24.9453082 C24.5834501,25.1460494 24.7274644,25.2222802 24.890963,25.2426085 M21.000035,22.4847464 C21.0076593,20.5442483 22.5909696,18.9823632 24.5343158,19.0001504 C26.4437763,19.0153966 28.0067552,20.6043859 27.999978,22.5237088 C27.9932009,24.4591249 26.4031134,26.0184689 24.4555315,25.9998347 C22.5223511,25.9803535 20.9915636,24.4235505 21.000035,22.4847464" id="Fill-8" fill="#000000"></path>
            <path d="M15.8906739,25.2419568 C16.5620919,25.2580486 17.72904,24.4204274 17.9412892,23.7970814 C18.0047103,23.6090613 17.9624296,23.4591534 17.7966891,23.3566739 C17.6250294,23.2516537 17.4466047,23.288072 17.3502046,23.4523779 C16.9899728,24.0647137 16.4648462,24.4238152 15.7748247,24.5737231 C15.5845615,24.615223 15.5279053,24.7939269 15.5718772,24.9827939 C15.6124667,25.1648855 15.7503019,25.225018 15.8906739,25.2419568 M15.4771684,25.9999659 C13.5567777,25.9906495 12.0016926,24.425509 12.0000013,22.501267 C11.9983101,20.5753312 13.5922936,18.992405 15.5228316,19.0000274 C17.4296924,19.0084968 18.9974618,20.5897291 18.9999986,22.5071956 C19.0016899,24.439907 17.419545,26.0084352 15.4771684,25.9999659" id="Fill-10" fill="#000000"></path>
            <path d="M15.9915927,14.1414376 L15.9915927,14.1622912 C19.5808214,14.1622912 23.1700502,14.159083 26.7592789,14.1687077 C27.0433471,14.1695098 27.160456,14.1261985 27.1588734,13.7957491 C27.146213,10.6035439 27.1470043,7.40973465 27.1580821,4.2175295 C27.1596647,3.91435022 27.0623377,3.85259148 26.7845998,3.85339354 C19.5934819,3.85579972 12.4023639,3.85098735 5.21124601,3.83655024 C4.91293489,3.83655024 4.85675428,3.93039145 4.85675428,4.20950889 C4.86229322,7.37765219 4.85833684,10.5465976 4.84251131,13.7139388 C4.84092876,14.0451902 4.91372617,14.1518644 5.26030514,14.1502603 C8.83687347,14.1366253 12.4142331,14.1414376 15.9915927,14.1414376 Z M15.9623155,14.9996435 C12.3485572,14.9996435 8.73400757,15.0004456 5.11945798,14.9996435 C4.28307905,14.9996435 4.00059346,14.7133075 4.00059346,13.8639243 C3.99980218,10.6211893 3.99980218,7.37845425 4.00059346,4.13571922 C4.00059346,3.28713805 4.28307905,3 5.1218318,3 L26.8803442,3 C27.7167231,3 28,3.28874217 28,4.13732334 C28,7.38005837 28,10.6227934 28,13.8655284 C28,14.7141096 27.7167231,14.9996435 26.8787617,14.9996435 L15.9623155,14.9996435 Z" id="Fill-12" fill="#000000"></path>
        </g>
    </g>
</svg>