<?xml version="1.0" encoding="UTF-8"?>
<svg width="50px" height="50px" viewBox="0 0 50 50" version="1.1" xmlns="http://www.w3.org/2000/svg" xmlns:xlink="http://www.w3.org/1999/xlink">
    <!-- Generator: Sketch 49.3 (51167) - http://www.bohemiancoding.com/sketch -->
    <title>icon/50px/各式凝膠</title>
    <desc>Created with Sketch.</desc>
    <defs>
        <polygon id="path-1" points="0 0 50 0 50 50 0 50"></polygon>
    </defs>
    <g id="icon/50px/各式凝膠" stroke="none" stroke-width="1" fill="none" fill-rule="evenodd">
        <g id="Group">
            <mask id="mask-2" fill="white">
                <use xlink:href="#path-1"></use>
            </mask>
            <g id="bound"></g>
            <path d="M24.9873532,22.5553374 C24.9873532,22.4296135 24.98928,22.3038896 24.9868715,22.177684 C24.9791643,21.7470435 25.0533462,21.8323045 24.6217423,21.8125548 C24.4724151,21.8062927 24.4492935,21.8689138 24.4521837,21.9965645 C24.4589275,22.3178589 24.4545922,22.639635 24.4545922,22.9614111 C24.4545922,23.3135343 24.4545922,23.3063088 24.8071971,23.3005284 C24.9579694,23.2981199 24.9979506,23.2407975 24.9897617,23.1006226 C24.9791643,22.9195031 24.9873532,22.7369385 24.9873532,22.5553374 Z M25.0095114,5.39619339 C25.4468957,5.4014921 26.1713736,5.35139522 26.888626,5.21892751 C27.3640647,5.13173968 27.8332412,5.02143021 28.2619549,4.78828705 C28.4584888,4.68086778 28.4575254,4.64522193 28.2686987,4.53491246 C28.0437444,4.40340815 27.8000038,4.31573862 27.5490378,4.25263582 C25.8105798,3.81621494 24.0629695,3.81814175 22.3095787,4.15147866 C21.9251815,4.22469718 21.5484916,4.33404324 21.2021487,4.52383334 C20.9945357,4.63751471 20.9950174,4.67653247 21.1944415,4.79069555 C21.3587015,4.8851089 21.5350039,4.9530287 21.71516,5.00986939 C22.6930125,5.31526766 23.7007305,5.39282148 25.0095114,5.39619339 Z M24.9873532,29.8266101 C24.9873532,28.0279395 24.9873532,26.2292689 24.9863898,24.4305984 C24.9863898,24.3631603 25.0201088,24.260558 24.9560426,24.2345462 C24.8129775,24.1767421 24.649681,24.1921565 24.5042073,24.223467 C24.4069038,24.2446619 24.456519,24.3703858 24.456519,24.4469762 C24.4541105,27.8135827 24.4483301,31.1797075 24.4589275,34.546314 C24.461336,35.3049927 24.3784834,36.0535556 24.3028564,36.8050088 C24.1853214,37.9673527 24.0687499,39.1292149 23.943026,40.2905954 C23.9242396,40.4611175 23.9844522,40.5314458 24.1395599,40.5642014 C24.5359996,40.647054 24.9290674,40.6509076 25.3245437,40.5555308 C25.470499,40.5203667 25.5263763,40.4572639 25.5085534,40.2939673 C25.394872,39.2510852 25.2884162,38.2072397 25.1882224,37.1629125 C25.1207843,36.4601111 24.9965055,35.7606816 24.9912068,35.0545083 C24.9786826,33.311715 24.9873532,31.5689217 24.9873532,29.8266101 Z M25.6704048,22.5384778 C25.6704048,22.7205607 25.6819657,22.9031253 25.6675146,23.0837631 C25.654027,23.2470596 25.710386,23.2822238 25.8669387,23.2716264 C26.9637713,23.1993713 28.052415,23.0702755 29.1203456,22.8048583 C29.9353832,22.6015806 30.7335614,22.3477243 31.4551491,21.9002243 C31.7003348,21.7484886 31.9286609,21.575558 32.0977379,21.3371162 C32.3231738,21.0196754 32.3226921,20.7446243 32.0962928,20.4286286 C31.9262524,20.1916318 31.6993714,20.0172561 31.4556308,19.8626302 C30.8539866,19.4806415 30.1887578,19.2499068 29.5100415,19.0504827 C29.3944333,19.0167637 29.3631228,19.0480742 29.3645679,19.1636824 C29.3693849,19.4642637 29.3472266,19.76629 29.3674581,20.0654262 C29.3929882,20.4507868 29.2186125,20.722466 28.9320006,20.943085 C28.6627299,21.1502163 28.353478,21.2802755 28.033147,21.3838411 C27.3645464,21.6001248 26.6742692,21.7046538 25.9767665,21.7629396 C25.6708865,21.7884698 25.6704048,21.7822077 25.6704048,22.0977216 L25.6704048,22.5384778 Z M20.0841213,19.7412416 C20.0841213,19.5591587 20.0773775,19.3770758 20.0860481,19.1954747 C20.0927919,19.0562631 20.0629265,19.0052029 19.9131175,19.059635 C19.6438468,19.1564569 19.3668689,19.2306388 19.0980799,19.3293875 C18.5918124,19.5158056 18.1052946,19.7450952 17.6828431,20.0885478 C17.0229131,20.6261259 17.0286935,21.1559967 17.6968124,21.6887577 C17.7348668,21.7191049 17.7734028,21.749452 17.8129023,21.7778723 C18.058088,21.9541748 18.3206149,22.1001301 18.5961477,22.2205553 C20.2026197,22.922875 21.9063952,23.1593901 23.6361826,23.2725898 C23.7566078,23.280297 23.7744307,23.2263465 23.7734673,23.125671 C23.7700954,22.7407921 23.7633516,22.3559132 23.7758758,21.971516 C23.7816562,21.8072561 23.7142181,21.773537 23.5706713,21.7658298 C23.0605502,21.7378912 22.5557278,21.6627459 22.0571675,21.5509913 C21.5653511,21.4402001 21.0807601,21.3024337 20.654455,21.0196754 C20.2821003,20.7730446 19.9998237,20.4714999 20.0821945,19.9714946 C20.0947187,19.8963492 20.0841213,19.817832 20.0841213,19.7412416 Z M21.0094684,5.75843235 C21.0080233,5.7902246 21.0041697,5.83165086 21.0041697,5.87355883 C21.003688,10.5749581 21.0046514,15.2768391 20.9998344,19.9782384 C20.9998344,20.1396081 21.0691993,20.2224606 21.1929964,20.2908621 C21.5398209,20.4820973 21.9160292,20.5890349 22.2989813,20.6699606 C23.5918661,20.9416399 24.8967934,20.9551275 26.2041293,20.8250683 C26.8443096,20.7614838 27.4753375,20.6396135 28.0765001,20.3920193 C28.3414355,20.2826732 28.4589705,20.1415349 28.4580071,19.8207222 C28.443556,15.2171082 28.448373,10.6130125 28.448373,6.00939844 L28.448373,5.75698725 C25.9618338,6.51036721 23.4969711,6.50988551 21.0094684,5.75843235 Z M17.0070169,22.3265295 C16.9935293,22.3544681 16.984377,22.3655473 16.9824502,22.3780715 C16.7868797,23.7908998 16.5903458,25.2037281 16.3962204,26.6165563 C15.9703969,29.712447 15.5465003,32.8093011 15.1206768,35.9051918 C14.7300175,38.7448177 14.3465837,41.5858887 13.9361747,44.4226244 C13.8783706,44.8233994 14.0079481,45.0685851 14.3094928,45.2723445 C14.4308813,45.3542336 14.5561235,45.4327509 14.685701,45.5006707 C15.2516994,45.7983617 15.8552704,45.9968224 16.4704023,46.1620458 C18.37023,46.6726486 20.311484,46.9009747 22.270561,47.0098391 C25.2282036,47.1740991 28.1733219,47.0758321 31.0977271,46.5777535 C32.2432115,46.382183 33.3732815,46.123028 34.4450656,45.6577051 C34.7538358,45.5237923 35.0500818,45.3667579 35.3058649,45.1437304 C35.4942099,44.9794705 35.5842879,44.7843817 35.5298557,44.5290803 C35.4951733,44.365302 35.4783137,44.1976702 35.4551921,44.0314834 C35.2249391,42.3551648 34.9951679,40.6788462 34.7644332,39.0030093 C34.5317718,37.3127214 34.2986286,35.6229152 34.0654854,33.933109 C33.8361959,32.2707597 33.607388,30.6084104 33.3780985,28.9460611 C33.1459187,27.2629987 32.913739,25.580418 32.6810775,23.8973556 C32.6088224,23.3756737 32.5356039,22.8539918 32.4590135,22.3038896 C31.698408,22.9243201 30.8400172,23.2682545 29.9435722,23.5331899 C28.6213036,23.9233675 27.265316,24.1040053 25.8934323,24.1796323 C25.7132762,24.1892663 25.6655878,24.2374364 25.6660695,24.4204826 C25.6723316,27.5207086 25.6694414,30.6209346 25.6713682,33.7211606 C25.6718499,34.4547909 25.6617342,35.186976 25.7465136,35.9201245 C25.913182,37.3724523 26.0466131,38.8281519 26.2007574,40.2819248 C26.2503725,40.7520647 26.1106793,41.0020674 25.6598074,41.1668091 C25.2792638,41.3060206 24.8837875,41.3368494 24.4820491,41.306984 C24.1655717,41.2833806 23.8558381,41.2323204 23.5764517,41.071914 C23.3288575,40.9298123 23.2069872,40.7197908 23.2378161,40.4278801 C23.3447536,39.4124549 23.4512095,38.3970298 23.5552569,37.3811229 C23.6294388,36.6576084 23.7580529,35.9340939 23.7623882,35.2100976 C23.783583,31.5987872 23.7710588,27.9879584 23.7753941,24.3766479 C23.7753941,24.2292474 23.7281874,24.1892663 23.5875308,24.1820408 C22.930491,24.14784 22.2748963,24.0929261 21.6255637,23.9879154 C19.9887445,23.7220166 18.3822726,23.3689299 17.0070169,22.3265295 Z M29.3664947,11.2604183 C29.3664947,13.4579371 29.3684215,15.6554559 29.3626411,17.8529747 C29.3621594,18.0157895 29.4079209,18.0764838 29.5678456,18.1169467 C30.3149634,18.3062551 31.0394414,18.559148 31.7133407,18.9416184 C32.099183,19.1607922 32.4488977,19.4233191 32.7436986,19.7595462 C33.0751087,20.1386447 33.1584429,20.5977055 33.2234725,21.0755527 C33.6362901,24.1170112 34.0592233,27.1570246 34.4773396,30.1980014 C34.8333164,32.788588 35.1864031,35.3791746 35.5433433,37.9697612 C35.8439246,40.1513839 36.1473961,42.3330066 36.4513492,44.5141475 C36.5183056,44.9939215 36.334296,45.3768736 36.0043309,45.7020216 C35.5096243,46.1895027 34.8930473,46.4717794 34.2552755,46.7107029 C32.984549,47.187105 31.6608353,47.4428881 30.3231523,47.6283429 C27.9117584,47.9631249 25.4878403,48.0613918 23.0571783,47.96457 C20.6486746,47.8682298 18.2565487,47.6399037 15.9299341,46.9607056 C15.3181741,46.7819947 14.7232737,46.5580038 14.1678727,46.2410447 C13.8566941,46.0632971 13.5710455,45.8532756 13.3292317,45.5840049 C12.9775902,45.1914188 12.9631392,44.7415103 13.0339492,44.2468036 C13.3798103,41.8243306 13.7073668,39.399449 14.0426305,36.9755309 C14.3586262,34.6898608 14.6775121,32.4046725 14.9925444,30.1194842 C15.3355153,27.6329449 15.6751144,25.145924 16.0161585,22.658903 C16.1047914,22.0148691 16.1948695,21.3708352 16.2782037,20.7263196 C16.3499771,20.1709187 16.6515218,19.7552109 17.0653027,19.4083864 C17.7603969,18.8260102 18.586032,18.5056792 19.4376789,18.238817 C19.5176412,18.2132868 19.5980852,18.1906469 19.679011,18.168007 C20.0836396,18.0533622 20.0841213,18.0533622 20.0841213,17.6246485 C20.0841213,13.3765296 20.0899017,9.12841077 20.0764141,4.88029189 C20.0744873,4.34126876 20.2975147,3.99059061 20.7401977,3.73962452 C21.2845196,3.43133605 21.8813468,3.28634412 22.4902165,3.18759547 C24.2142235,2.90917244 25.9314866,2.92795877 27.6367073,3.32969719 C28.0601222,3.42940924 28.4686045,3.57295607 28.834697,3.81621494 C29.192119,4.05321171 29.3746836,4.36535379 29.3722751,4.81478059 C29.3597509,6.96364762 29.3664947,9.11203294 29.3664947,11.2604183 Z" id="Fill-1" fill="#000000" mask="url(#mask-2)"></path>
        </g>
    </g>
</svg>