<?xml version="1.0" encoding="UTF-8"?>
<svg width="50px" height="50px" viewBox="0 0 50 50" version="1.1" xmlns="http://www.w3.org/2000/svg" xmlns:xlink="http://www.w3.org/1999/xlink">
    <!-- Generator: Sketch 49.3 (51167) - http://www.bohemiancoding.com/sketch -->
    <title>icon/50px/飾品貼紙</title>
    <desc>Created with Sketch.</desc>
    <defs>
        <rect id="path-1" x="0" y="0" width="50" height="50"></rect>
        <polygon id="path-3" points="0 0.216056421 9.30315929 0.216056421 9.30315929 17.3921034 0 17.3921034"></polygon>
        <polygon id="path-5" points="0.169480377 0.0387719298 9.67389474 0.0387719298 9.67389474 17.3929067 0.169480377 17.3929067"></polygon>
    </defs>
    <g id="icon/50px/飾品貼紙" stroke="none" stroke-width="1" fill="none" fill-rule="evenodd">
        <g id="Page-1">
            <mask id="mask-2" fill="white">
                <use xlink:href="#path-1"></use>
            </mask>
            <g id="Mask"></g>
            <g mask="url(#mask-2)">
                <g transform="translate(8.000000, 6.000000)">
                    <path d="M21.3604105,10.9285544 C21.3604105,12.2133965 21.364586,13.4982386 21.3592175,14.7824842 C21.3550421,15.9569754 20.7919544,16.7461333 19.7343754,17.2531509 C17.6478491,18.2534667 15.5977088,18.1413263 13.5553228,17.1457825 C12.6349368,16.6972211 12.1010772,15.9635368 12.0921298,14.9369754 C12.0712526,12.3810105 12.0521649,9.82325614 12.1028667,7.26788772 C12.1404456,5.39669474 12.7942,3.71995789 14.0032877,2.27525614 C14.253814,1.97641404 14.5335684,1.70620351 14.8461298,1.47058947 C16.0528316,0.562729825 17.3698842,0.5508 18.5813579,1.45746667 C19.6431123,2.25139649 20.3123754,3.33820351 20.8044807,4.54371228 C21.1808667,5.46469474 21.3789018,6.42146667 21.364586,7.42476491 C21.3478842,8.59209825 21.3604105,9.76062456 21.3604105,10.9285544" id="Fill-1" fill="#000000"></path>
                    <path d="M31.3259895,33.6304737 C31.3259895,33.8881579 31.3224105,34.1464386 31.3271825,34.4041228 C31.3313579,34.6188596 31.4512526,34.7477018 31.6612175,34.7542632 C31.8717789,34.7614211 32.0113579,34.6331754 32.0167263,34.4255965 C32.0304456,33.8977018 32.0280596,33.368614 32.0197088,32.8401228 C32.0161298,32.6325439 31.8860947,32.4905789 31.6820947,32.487 C31.4566211,32.4828246 31.3289719,32.624193 31.326586,32.8568246 C31.3236035,33.1145088 31.3259895,33.372193 31.3259895,33.6304737 Z M31.325393,29.6763333 C31.325393,30.143386 31.326586,30.6104386 31.3247965,31.0774912 C31.3242,31.3047544 31.4166561,31.464614 31.6558491,31.4729649 C31.9165158,31.4819123 32.0232877,31.3131053 32.0238842,31.0715263 C32.0262702,30.1636667 32.0256737,29.2552105 32.0244807,28.3473509 C32.0244807,28.1087544 31.9314281,27.9304035 31.6689719,27.932193 C31.4053228,27.9345789 31.321814,28.1123333 31.3242,28.3527193 C31.3277789,28.7941228 31.3247965,29.2349298 31.325393,29.6763333 Z M24.3923754,31.298193 C24.3923754,30.0008246 24.3446561,28.7004737 24.4043053,27.4054912 C24.4872175,25.5897719 25.1308316,23.9685088 26.3291825,22.5864386 C26.5236386,22.3615614 26.7407614,22.1515965 26.971007,21.9642982 C28.2176737,20.9514561 29.5955684,20.9484737 30.8380596,21.9696667 C31.9892877,22.9157018 32.6680947,24.1725088 33.1118842,25.5682982 C33.329007,26.2518772 33.4262351,26.9563333 33.4244456,27.6762982 C33.4190772,30.1028246 33.4232526,32.5293509 33.4220596,34.9564737 C33.4214632,36.2311754 32.8899895,36.9600877 31.7459193,37.4957368 C29.7065158,38.4507193 27.7207965,38.2884737 25.7511825,37.3269298 C24.8540596,36.8897018 24.3846211,36.1548246 24.3768667,35.1527193 C24.3655333,33.8678772 24.3738842,32.5830351 24.3738842,31.298193 L24.3923754,31.298193 Z" id="Fill-3" fill="#000000"></path>
                    <g id="Group-7" stroke-width="1" fill="none" transform="translate(0.000000, 0.557958)">
                        <mask id="mask-4" fill="white">
                            <use xlink:href="#path-3"></use>
                        </mask>
                        <g id="Clip-6"></g>
                        <path d="M6.1673614,2.4481193 C5.5350807,2.44454035 5.01971228,2.9509614 5.02209825,3.57310175 C5.02388772,4.18987368 5.55416842,4.71478596 6.16795789,4.70882105 C6.77876491,4.70225965 7.27325614,4.20657544 7.28220351,3.59159298 C7.29115088,2.95036491 6.80441404,2.45169825 6.1673614,2.4481193 M3.15865965,7.00292632 C3.15209825,6.36766316 2.64865965,5.88032982 2.00981754,5.89106667 C1.39722105,5.90180351 0.901536842,6.40047018 0.897957895,7.01127719 C0.893782456,7.62745263 1.41869474,8.15176842 2.03785263,8.14997895 C2.66357193,8.14818947 3.16522105,7.63520702 3.15865965,7.00292632 M6.21746667,13.5070667 C5.57981754,13.5011018 5.07995789,13.993207 5.07816842,14.6290667 C5.07697544,15.2601544 5.58757193,15.7731368 6.21090526,15.7677684 C6.81455439,15.7624 7.32574737,15.2571719 7.33827368,14.6541193 C7.3508,14.029593 6.84676491,13.5130316 6.21746667,13.5070667 M6.50795789,7.6089614 C5.87865965,7.6161193 5.38237895,8.12910175 5.39311579,8.76197895 C5.40444912,9.37576842 5.90132632,9.86548772 6.51571228,9.86787368 C7.14560702,9.87025965 7.65560702,9.36204912 7.65322105,8.73513684 C7.6502386,8.10643509 7.13785263,7.6024 6.50795789,7.6089614 M2.62241404,10.8759439 C1.98834386,10.8759439 1.49206316,11.378786 1.49743158,12.0140491 C1.5028,12.6278386 1.99550175,13.1259088 2.60690526,13.1354526 C3.22844912,13.1449965 3.75276491,12.632014 3.75753684,12.0098737 C3.76171228,11.3835579 3.25290526,10.8753474 2.62241404,10.8759439 M9.2888,10.3790667 C9.2888,11.6639088 9.29297544,12.9487509 9.28760702,14.2329965 C9.28343158,15.4086807 8.71318596,16.1930667 7.6568,16.6988912 C5.56967719,17.698014 3.51953684,17.5799088 1.47894035,16.5837684 C0.543045614,16.1274526 0.0258877193,15.3746807 0.0193263158,14.3326105 C0.00381754386,11.8285404 -0.019445614,9.32327719 0.0294666667,6.8204 C0.0700280702,4.72075088 0.795957895,2.85790877 2.28778246,1.34699649 C3.74858947,-0.132898246 5.4742386,-0.168091228 6.95830877,1.28675088 C8.4250807,2.72489123 9.20767719,4.50780351 9.28104561,6.56510175 C9.32578246,7.83503158 9.2888,9.10794386 9.2888,10.3790667" id="Fill-5" fill="#000000" mask="url(#mask-4)"></path>
                    </g>
                    <path d="M20.6643053,31.9097158 C20.6643053,30.8718211 20.6619193,29.8345228 20.6666912,28.7966281 C20.6672877,28.6087333 20.6422351,28.4608035 20.4835684,28.3182421 C18.3892877,26.4345228 15.2851474,26.4046982 13.165814,28.2556105 C13.0423404,28.3635754 12.9647965,28.4697509 12.965393,28.6475053 C12.9713579,30.7489439 12.9588316,32.8503825 12.9755333,34.9518211 C12.9814982,35.6729789 13.3417789,36.2026632 14.0003053,36.521786 C15.8333228,37.4093649 17.6687263,37.5250842 19.5363404,36.6058912 C20.2640596,36.2474 20.6637088,35.7212947 20.6643053,34.9058912 C20.6649018,33.9073649 20.6643053,32.9082421 20.6643053,31.9097158 M21.5578491,30.8575053 C21.5578491,32.1674 21.5614281,33.4772947 21.5572526,34.7871895 C21.5530772,36.1167684 20.9667263,36.9118912 19.7689719,37.472593 C17.6675333,38.456207 15.6221649,38.2975404 13.5917088,37.3061719 C12.6319544,36.8379263 12.1040596,36.0553298 12.0969018,34.988207 C12.0772175,32.4847333 12.0629018,29.9812596 12.1022702,27.4789789 C12.1320947,25.6399965 12.725007,23.9716105 13.8672877,22.513786 C14.1243754,22.1857158 14.4100947,21.8850842 14.7286211,21.6178561 C16.0045158,20.5477509 17.4683053,20.4851193 18.7853579,21.5069088 C20.2789719,22.6658912 21.0502351,24.2680667 21.4409368,26.080207 C21.5369719,26.525786 21.5566561,26.9791193 21.5572526,27.4336456 C21.5596386,28.5747333 21.5578491,29.7164175 21.5578491,30.8575053" id="Fill-8" fill="#000000"></path>
                    <g id="Group-12" stroke-width="1" fill="none" transform="translate(23.859649, 0.557958)">
                        <mask id="mask-6" fill="white">
                            <use xlink:href="#path-5"></use>
                        </mask>
                        <g id="Clip-11"></g>
                        <path d="M8.78166316,10.2523123 C8.78166316,9.07185614 8.78822456,7.8914 8.78047018,6.71094386 C8.76913684,4.93697895 8.14580351,3.38371579 6.99338246,2.05771579 C5.67334737,0.537259649 4.17973333,0.561715789 2.86625965,2.08575088 C1.71085614,3.42547018 1.12689123,5.00318947 1.09647018,6.75389123 C1.0541193,9.24364561 1.07797895,11.7351895 1.0881193,14.2261368 C1.08990877,14.9401368 1.45018947,15.4608737 2.0878386,15.7704526 C3.88804912,16.6437158 5.69959298,16.7934351 7.55348772,15.9010842 C8.39334737,15.4966632 8.77927719,14.9908386 8.78106667,14.0662772 C8.78345263,12.7951544 8.78166316,11.5234351 8.78166316,10.2523123 Z M9.65731228,10.2576807 C9.65731228,11.5556456 9.66089123,12.8536105 9.65671579,14.1515754 C9.65254035,15.3564877 9.06857544,16.1587684 7.98892632,16.6812947 C5.86243509,17.7090491 3.7741193,17.582593 1.69832982,16.5655754 C0.786294737,16.118207 0.227382456,15.3809439 0.216645614,14.3597509 C0.187417544,11.6475053 0.112259649,8.93227719 0.248259649,6.22301404 C0.340119298,4.39954035 1.05531228,2.77648772 2.28408421,1.40455789 C2.79348772,0.834908772 3.38401404,0.367259649 4.13141754,0.157891228 C5.32380351,-0.175547368 6.34738246,0.214557895 7.20632982,1.02041754 C8.73215439,2.45080351 9.54815439,4.24206667 9.64418947,6.32561053 C9.70443509,7.6331193 9.65552281,8.94659298 9.65552281,10.2576807 L9.65731228,10.2576807 Z" id="Fill-10" fill="#000000" mask="url(#mask-6)"></path>
                    </g>
                    <g id="Group-2" stroke-width="1" fill="none" transform="translate(0.000000, 20.877193)">
                        <path d="M4.73787018,10.9632105 C6.16527368,10.9632105 7.5920807,10.9709649 9.01948421,10.9566491 C9.30520351,10.9536667 9.39944912,11.0222632 9.38990526,11.3199123 C9.36664211,11.9939474 9.37618596,12.6685789 9.38572982,13.3432105 C9.38930877,13.5603333 9.35411579,13.6724737 9.09344912,13.6718772 C6.19987018,13.6635263 3.30748421,13.6647193 0.413905263,13.6712807 C0.177098246,13.6712807 0.0989578947,13.5985088 0.103133333,13.3599123 C0.117449123,12.6727544 0.122221053,11.9844035 0.101940351,11.2972456 C0.0935894737,11.0139123 0.194396491,10.9554561 0.45625614,10.9578421 C1.88365965,10.9691754 3.31046667,10.9632105 4.73787018,10.9632105" id="Fill-13" fill="#000000"></path>
                        <path d="M4.75827018,10.0332211 C3.31834035,10.0332211 1.87781404,10.0278526 0.437884211,10.037993 C0.193322807,10.0397825 0.0954982456,9.98609825 0.102059649,9.71946667 C0.120550877,9.01918596 0.115778947,8.31830877 0.103849123,7.61743158 C0.100270175,7.39792281 0.173042105,7.32455439 0.393147368,7.32515088 C3.29925263,7.3305193 6.20595439,7.3305193 9.11205965,7.32574737 C9.31069123,7.32574737 9.38823509,7.38837895 9.38525263,7.59297544 C9.37690175,8.31950175 9.36974386,9.04662456 9.38823509,9.77255439 C9.39479649,10.0660281 9.22539298,10.034414 9.0404807,10.0338175 C7.61307719,10.0326246 6.18567368,10.0332211 4.75827018,10.0332211" id="Fill-15" fill="#000000"></path>
                        <path d="M4.77222807,6.40738947 C3.35794737,6.40738947 1.94366667,6.39844211 0.529385965,6.41454737 C0.208473684,6.41812632 0.132122807,6.31791579 0.170894737,6.01370526 C0.262157895,5.30328421 0.429175439,4.61433684 0.665385965,3.93851228 C0.728017544,3.7601614 0.831807018,3.71124912 1.01015789,3.71184561 C3.51542105,3.71661754 6.01949123,3.71542456 8.52415789,3.71363509 C8.67268421,3.71363509 8.79019298,3.7196 8.857,3.89795088 C9.12064912,4.60598596 9.31689474,5.32654737 9.37714035,6.08349474 C9.39801754,6.34774035 9.30436842,6.41335439 9.05503509,6.41156491 C7.62703509,6.40261754 6.20022807,6.40738947 4.77222807,6.40738947" id="Fill-17" fill="#000000"></path>
                        <path d="M4.78153333,14.5867158 C6.18269123,14.5867158 7.58265614,14.5974526 8.98321754,14.5795579 C9.33395439,14.574786 9.37153333,14.6916982 9.26834035,14.979207 C9.02914737,15.6448912 8.60146316,16.1381895 7.97156842,16.4626807 C5.7967614,17.5822947 3.63269123,17.4856632 1.48114737,16.4024351 C0.887638596,16.1041895 0.493357895,15.624014 0.255357895,15.0030667 C0.140235088,14.7024351 0.158129825,14.573593 0.541673684,14.5789614 C1.9547614,14.5992421 3.36844561,14.5867158 4.78153333,14.5867158" id="Fill-19" fill="#000000"></path>
                        <path d="M1.28412632,2.76318596 C1.8156,1.21827368 3.66114386,-0.0385333333 5.12791579,0.13325614 C5.56096842,0.183957895 5.95524912,0.344414035 6.32089825,0.572273684 C7.17626667,1.10494035 7.77991579,1.86427368 8.31019649,2.76318596 L1.28412632,2.76318596 Z" id="Fill-21" fill="#000000"></path>
                    </g>
                </g>
            </g>
        </g>
    </g>
</svg>