<?xml version="1.0" encoding="UTF-8"?>
<svg width="50px" height="50px" viewBox="0 0 50 50" version="1.1" xmlns="http://www.w3.org/2000/svg" xmlns:xlink="http://www.w3.org/1999/xlink">
    <!-- Generator: Sketch 49.3 (51167) - http://www.bohemiancoding.com/sketch -->
    <title>icon/50px/機器設備</title>
    <desc>Created with Sketch.</desc>
    <defs>
        <polygon id="path-1" points="0 -0.000114990512 37.6191225 -0.000114990512 37.6191225 35.0018471 0 35.0018471"></polygon>
    </defs>
    <g id="icon/50px/機器設備" stroke="none" stroke-width="1" fill="none" fill-rule="evenodd">
        <rect id="bound" x="0" y="0" width="50" height="50"></rect>
        <g id="Page-1" transform="translate(6.000000, 7.000000)">
            <mask id="mask-2" fill="white">
                <use xlink:href="#path-1"></use>
            </mask>
            <g id="Clip-2"></g>
            <path d="M23.1231237,8.29725541 C20.3142298,11.1409708 17.5030951,13.9812364 14.696442,16.8272516 C14.5675937,16.9583408 14.4902847,16.9583408 14.3715201,16.8238019 C14.1944937,16.6237184 14.0096243,16.4293844 13.8101895,16.2545989 C13.6398856,16.1039613 13.6544511,16.0073693 13.8124304,15.8498323 C14.8230495,14.8413655 15.8247054,13.8236994 16.828602,12.8083332 C18.4700179,11.1478702 20.1080725,9.48625731 21.7528496,7.83154383 C21.9601273,7.62341101 22.1416354,7.24739203 22.3970913,7.26924023 C22.6178141,7.28878861 22.8138877,7.63031044 23.0155633,7.83499355 C23.1029561,7.92353624 23.2127573,7.99483036 23.2665375,8.13396888 C23.2206003,8.18686452 23.174663,8.24550968 23.1231237,8.29725541 Z M13.6678961,17.9150619 C13.8684514,18.095597 13.8863781,18.277282 13.8202733,18.5153123 C13.5412886,19.5237791 13.0057277,20.3804584 12.353643,21.1692934 C12.1754962,21.3831757 11.9827839,21.5821093 11.7945533,21.7856425 C11.7049196,21.8822345 11.6007205,21.9535287 11.4203329,21.9362801 C11.2937254,21.9178816 11.130144,21.8741852 10.9822485,21.7890922 C10.1128023,21.2980827 9.42710501,20.6092896 8.95540803,19.7135135 C8.68762756,19.2052554 8.72460143,19.0569176 9.13243445,18.6705495 C9.98731519,17.8564167 10.9150233,17.1607241 12.0556112,16.810003 C12.3312346,16.72606 12.5407532,16.7329594 12.7491514,16.980189 C13.0303769,17.3148114 13.3429742,17.6241359 13.6678961,17.9150619 Z M16.4297324,22.5273313 C16.4286119,23.7508304 16.1317005,24.894986 15.5300348,25.9551985 C15.4023069,26.1805799 15.3182753,26.1932288 15.1132384,26.0310922 C13.8101895,25.0065268 12.3357163,24.4833199 10.6886984,24.48217 C9.60637227,24.4810201 8.52292576,24.4407734 7.46748977,24.785745 C6.6058865,25.0663218 5.80590635,25.4618892 5.09892109,26.0391416 C4.90957005,26.1932288 4.82777936,26.1920789 4.70229228,25.9712972 C4.13647999,24.9812288 3.80931724,23.9152668 3.8014743,22.7722611 C3.78354757,19.8549518 3.78690883,16.9387924 3.79587219,14.0214831 C3.80595598,11.1708683 5.98517361,8.74686831 8.42993087,8.38234839 C9.74642481,8.18801442 11.0763638,8.14661784 12.374931,8.5191871 C14.0051427,8.98834839 15.1087567,10.108356 15.8874489,11.611282 C15.9793234,11.7883674 15.9389882,11.8918588 15.8078991,12.022948 C14.739018,13.0958095 13.6757391,14.1744205 12.6135806,15.2541814 C12.5217061,15.3473237 12.4264704,15.4220676 12.2942608,15.4462156 C10.7480806,15.7348417 9.52122032,16.6133693 8.34701976,17.6287355 C7.60081979,18.2738323 7.47757355,19.0247203 7.77672579,19.8928987 C8.34814018,21.5441624 9.4539951,22.6354224 11.1211806,23.0735362 C11.7979145,23.2506216 12.3850148,23.0999841 12.8824814,22.5238816 C13.8438021,21.4119233 14.6908399,20.2344205 15.026966,18.7659917 C15.1378877,18.2795818 15.3619717,17.9311605 15.7048204,17.6149366 C15.935627,17.4010543 16.1361822,17.1526748 16.3613867,16.9088949 C16.4599837,17.0537829 16.4286119,17.1526748 16.4286119,17.2435173 C16.4308528,19.0051719 16.4319732,20.7668266 16.4297324,22.5273313 Z M14.3748814,27.3902801 C12.9698742,28.6367772 11.3351809,29.1496349 9.49881191,28.9897981 C8.12853779,28.8713579 6.9196042,28.3424015 5.87313157,27.415578 C5.70058683,27.2614907 5.69498473,27.1821472 5.87761325,27.0361093 C6.85461982,26.2541738 7.96047473,25.8390581 9.19517799,25.7838626 C9.49881191,25.7700638 9.80468667,25.7815628 10.2214831,25.7815628 C11.1066152,25.7355666 12.0847421,25.8218095 13.0158115,26.2311757 C13.5020739,26.4439082 13.9468808,26.7233351 14.365918,27.0545078 C14.5261381,27.1821472 14.5294994,27.2534414 14.3748814,27.3902801 Z M35.8488583,-0.000459962049 C32.9335245,2.9547962 30.0170703,5.91235218 27.1017364,8.86875825 C26.9964169,8.97454953 26.8910974,9.08379051 26.7712124,9.16888349 C26.4967094,9.36091765 26.2490965,9.27007514 26.0328554,9.05389298 C25.6698392,8.69397268 25.3124251,8.32600304 24.9538906,7.96148311 C23.8245068,6.8138778 22.6951231,5.66627249 21.5679802,4.51751727 C21.1724718,4.11390057 21.1724718,3.81722505 21.5657394,3.41360835 C22.676076,2.27520228 23.787533,1.13794611 24.8967491,-0.000459962049 L23.1130399,-0.000459962049 C22.273845,0.856219355 21.4324093,1.70944896 20.599937,2.5718778 C19.8279674,3.37106186 19.840292,4.55891385 20.6055391,5.36499734 C20.8329844,5.60532751 21.0593094,5.8479575 21.303561,6.06988918 C21.4727445,6.22167666 21.4604199,6.31136926 21.3024406,6.47005617 C19.9075172,7.86719089 18.5204368,9.27007514 17.1400789,10.6798588 C16.9608116,10.8638436 16.9047906,10.8166975 16.7972302,10.6200638 C15.8303075,8.83081139 14.3435096,7.72000304 12.438795,7.1956463 C11.1391073,6.83802581 9.80020499,6.87137306 8.48931315,7.05650778 C5.49667033,7.47852296 3.19756771,9.79328197 2.64744131,12.8370808 C2.60934702,13.0452137 2.53091759,13.2096501 2.38414252,13.3671871 C0.828999037,15.0310998 0.0110921617,17.0181359 0.00661048022,19.3282953 C-0.00571414392,24.5523142 0.00212879872,29.7774831 0.00324921909,35.002652 L1.2614813,35.002652 C1.2670834,29.7050391 1.26036088,24.4085761 1.27156509,19.1109632 C1.27492635,17.8081207 1.63682213,16.5995704 2.32139898,15.4968114 C2.36957705,15.4186178 2.3998284,15.3231757 2.50066624,15.2760296 C2.5589281,15.3910201 2.52867675,15.5094603 2.52867675,15.622151 C2.53091759,17.8920638 2.53427885,20.1608266 2.52867675,22.4307393 C2.52531549,24.1636463 3.02390255,25.7298171 4.03564215,27.1108531 C6.9027979,31.0216805 12.1362815,31.4114983 15.4628096,27.9767317 C16.948487,26.4427583 17.6890849,24.5810619 17.6935665,22.4157905 C17.6969278,20.2654679 17.694687,18.1151454 17.694687,15.9648228 C17.694687,15.888929 17.6991686,15.8130353 17.6935665,15.7382915 C17.6857236,15.6267507 17.7305404,15.5336083 17.8235353,15.5025609 C17.9333365,15.4657639 17.9501428,15.5945533 17.9882371,15.6577981 C18.643683,16.7766558 18.9585212,17.9932554 18.9585212,19.2972478 C18.9574007,23.8462725 18.9574007,28.3964471 18.9574007,32.9466216 C18.9574007,33.6308152 18.9540395,34.3173085 18.9618824,35.002652 L20.2358004,35.002652 C20.2077899,29.9016729 20.2089103,24.8018436 20.2290779,19.7008645 C20.2358004,17.8897639 19.8346899,16.216652 18.8800917,14.6907279 C18.7938194,14.5515894 18.8095052,14.4779954 18.918186,14.3687545 C20.6301884,12.6427469 22.3399498,10.9132896 24.0452297,9.17923264 C24.1774393,9.04354383 24.2525074,9.0596425 24.3701516,9.18843188 C24.6076807,9.44831044 24.856414,9.69783985 25.1073882,9.94391954 C25.8468656,10.6649101 27.1106998,10.6764091 27.8356118,9.94391954 C31.0545795,6.69083795 34.2657043,3.43085693 37.4779496,0.170875901 C37.5294889,0.117980266 37.5765465,0.0604850095 37.6191225,-0.000459962049 L35.8488583,-0.000459962049 Z" id="Fill-1" fill="#000000" mask="url(#mask-2)"></path>
        </g>
    </g>
</svg>