<?xml version="1.0" encoding="UTF-8"?>
<svg width="44px" height="44px" viewBox="0 0 44 44" version="1.1" xmlns="http://www.w3.org/2000/svg" xmlns:xlink="http://www.w3.org/1999/xlink">
    <!-- Generator: Sketch 50.2 (55047) - http://www.bohemiancoding.com/sketch -->
    <title>icon/44px/Call</title>
    <desc>Created with Sketch.</desc>
    <defs>
        <rect id="path-1" x="0" y="0" width="44" height="44"></rect>
    </defs>
    <g id="icon/44px/Call" stroke="none" stroke-width="1" fill="none" fill-rule="evenodd">
        <g id="Call">
            <mask id="mask-2" fill="white">
                <use xlink:href="#path-1"></use>
            </mask>
            <g id="bound"></g>
            <path d="M33.6382715,15.6044562 C30.7172997,24.0559071 25.3408173,30.532077 17.4194439,34.9539296 C16.0495118,35.7185747 14.606838,35.889611 13.0937691,35.3616567 C10.9844746,34.6258661 9.62030209,32.2522671 10.0940827,30.1072044 C10.7327587,27.2169421 13.5321388,25.6403973 16.399141,26.560606 C16.916652,26.7268332 17.3897926,26.9848513 17.7985111,27.336542 C17.974499,27.4879238 18.0817982,27.4864601 18.2650389,27.3453238 C21.3086689,25.0039248 23.7874312,22.1906079 25.6601553,18.8689912 C25.8783803,18.4821732 26.0716469,18.0817643 26.2958448,17.6982917 C26.3875718,17.5412645 26.3581338,17.4636918 26.2233165,17.3541282 C24.9065006,16.2840014 24.3171013,14.9069293 24.4523453,13.2373391 C24.6878491,10.3286767 27.8010209,8.30823218 30.6330388,9.22174996 C33.2090744,10.0522587 34.5600212,12.6067212 33.779915,15.1726837 C33.7357581,15.3175836 33.6856282,15.4608109 33.6382715,15.6044562" id="Fill-1" fill="#000000" mask="url(#mask-2)"></path>
        </g>
    </g>
</svg>