<?xml version="1.0" encoding="UTF-8"?>
<svg width="50px" height="50px" viewBox="0 0 50 50" version="1.1" xmlns="http://www.w3.org/2000/svg" xmlns:xlink="http://www.w3.org/1999/xlink">
    <!-- Generator: Sketch 49.3 (51167) - http://www.bohemiancoding.com/sketch -->
    <title>icon/50px/各式溶劑</title>
    <desc>Created with Sketch.</desc>
    <defs>
        <rect id="path-1" x="0" y="0" width="50" height="50"></rect>
        <polygon id="path-3" points="0 0.523823598 21.9644615 0.523823598 21.9644615 43.9998466 0 43.9998466"></polygon>
        <polygon id="path-5" points="0.0468518025 0.111128205 10.6603394 0.111128205 10.6603394 3.26074773 0.0468518025 3.26074773"></polygon>
    </defs>
    <g id="icon/50px/各式溶劑" stroke="none" stroke-width="1" fill="none" fill-rule="evenodd">
        <g id="各式溶劑">
            <mask id="mask-2" fill="white">
                <use xlink:href="#path-1"></use>
            </mask>
            <g id="bound"></g>
            <g mask="url(#mask-2)">
                <g transform="translate(14.000000, 1.000000)">
                    <g id="Group-3" stroke-width="1" fill="none" transform="translate(0.000000, 3.837703)">
                        <mask id="mask-4" fill="white">
                            <use xlink:href="#path-3"></use>
                        </mask>
                        <g id="Clip-2"></g>
                        <path d="M10.9623179,8.59049231 C12.7330359,8.59049231 14.5031897,8.58259487 16.2733436,8.59782564 C16.6016513,8.60064615 16.7195487,8.51490256 16.6998051,8.17756923 C16.6721641,7.70485128 16.6986769,7.22931282 16.6913436,6.75546667 C16.6840103,6.26356923 16.4860103,6.04131282 16.0127282,6.04018462 C12.661959,6.03454359 9.31062564,6.03454359 5.95985641,6.04018462 C5.48544615,6.04131282 5.28857436,6.26187692 5.28180513,6.75433846 C5.27447179,7.22818462 5.30042051,7.70372308 5.27334359,8.17644103 C5.2541641,8.51321026 5.37036923,8.60064615 5.69924103,8.59782564 C7.4536,8.58259487 9.20852308,8.59049231 10.9623179,8.59049231 M20.2677538,30.033159 C20.4589846,26.6536205 20.6174974,23.2723897 20.8516,19.8962359 C21.0072923,17.658441 20.581959,15.6034154 19.3544718,13.7046462 C18.5833436,12.5110051 17.8844205,11.2699795 17.1736513,10.0379795 C17.0117538,9.75705641 16.8357538,9.65044103 16.5068821,9.65156923 C12.8210359,9.66397949 9.13518974,9.66397949 5.44990769,9.65213333 C5.14134359,9.65100513 4.96929231,9.74182564 4.8141641,10.0097744 C4.01257436,11.3901333 3.19631795,12.7625949 2.37329231,14.1299795 C1.45098462,15.6626462 1.0070359,17.3143385 1.10293333,19.1048 C1.19375385,20.7784923 1.29021538,22.4521846 1.3810359,24.126441 C1.70765128,30.1115692 2.03313846,36.0966974 2.35975385,42.0823897 C2.39585641,42.7525436 2.55324103,42.8992103 3.23354872,42.8997744 C8.40636923,42.9003385 13.5791897,42.9003385 18.7525744,42.8992103 C19.4165231,42.8992103 19.5767282,42.7446462 19.613959,42.0665949 C19.8328308,38.0552615 20.0500103,34.0444923 20.2677538,30.033159 M0.630215385,30.2712103 C0.424317949,26.5746462 0.213907692,22.8786462 0.0147794872,19.1820821 C-0.0895794872,17.2517231 0.353805128,15.4454667 1.32970256,13.7774154 C2.19165128,12.3039795 3.06713846,10.8378769 3.94883077,9.37628718 C4.11918974,9.09310769 4.19985641,8.81162051 4.18913846,8.48218462 C4.17165128,7.91300513 4.17898462,7.34326154 4.18631795,6.77351795 C4.19872821,5.87772308 4.55749744,5.34521026 5.38842051,5.04003077 C5.92431795,4.84315897 5.59375385,4.42403077 5.64226667,4.11490256 C5.69585641,3.77418462 5.37544615,3.88418462 5.20001026,3.88249231 C4.04472821,3.87290256 2.88944615,3.87910769 1.73472821,3.87741538 C1.01098462,3.87572308 0.888574359,3.7482359 0.885189744,3.01038974 C0.883497436,2.67813333 0.882369231,2.34587692 0.885189744,2.01362051 C0.890830769,1.35756923 1.04877949,1.1973641 1.69411282,1.19567179 C2.91257436,1.19397949 4.1316,1.19228718 5.35006154,1.19792821 C5.58021538,1.19905641 5.75565128,1.17367179 5.90401026,0.946902564 C6.10652308,0.639466667 6.43708718,0.523261538 6.81052308,0.523825641 C9.59549744,0.527210256 12.3804718,0.521569231 15.1654462,0.528338462 C15.8722667,0.530030769 16.3054974,0.978492308 16.3117026,1.69715897 C16.3207282,2.66290256 16.3224205,3.62808205 16.3094462,4.59326154 C16.3060615,4.84597949 16.3613436,4.97685128 16.6270359,5.06372308 C17.3507795,5.29895385 17.7191385,5.83372308 17.7806256,6.58567179 C17.787959,6.67987692 17.7986769,6.77746667 17.7857026,6.86997949 C17.5696513,8.35977436 18.0333436,9.63972308 18.8873949,10.8525436 C19.5310359,11.7680821 20.0517026,12.7704923 20.6186256,13.7390564 C21.6475487,15.4951077 22.0666769,17.3865436 21.9442667,19.4212615 C21.7191897,23.1482872 21.5352923,26.8775692 21.329959,30.6057231 C21.1139077,34.5234154 20.8944718,38.4411077 20.6722154,42.3576718 C20.6169333,43.3228513 19.943959,43.9918769 18.9832923,43.9935692 C13.6502667,44.0020308 8.31780513,44.0020308 2.98421538,43.9930051 C2.0421641,43.9918769 1.35734359,43.332441 1.30431795,42.4028 C1.0730359,38.3593128 0.851907692,34.3152615 0.627394872,30.2712103 C0.628523077,30.2712103 0.629651282,30.2712103 0.630215385,30.2712103" id="Fill-1" fill="#000000" mask="url(#mask-4)"></path>
                    </g>
                    <g id="Group-6" stroke-width="1" fill="none" transform="translate(5.641026, 0.453087)">
                        <mask id="mask-6" fill="white">
                            <use xlink:href="#path-5"></use>
                        </mask>
                        <g id="Clip-5"></g>
                        <path d="M5.32072821,3.24528205 C3.70683077,3.24528205 2.09236923,3.2345641 0.479035897,3.25317949 C0.0847282051,3.25712821 -0.0472717949,3.22158974 0.114061538,2.77764103 C0.749241026,1.02271795 1.97108718,0.124102564 3.84447179,0.139897436 C5.14077949,0.151179487 6.4421641,0.0315897436 7.73113846,0.209846154 C9.12729231,0.402205128 10.3638051,1.62179487 10.6469846,2.99369231 C10.7237026,3.36712821 10.451241,3.23964103 10.3045744,3.24020513 C8.64329231,3.24810256 6.98144615,3.24528205 5.32072821,3.24528205" id="Fill-4" fill="#000000" mask="url(#mask-6)"></path>
                    </g>
                    <path d="M10.9810462,20.9081795 C8.45217436,20.9081795 5.92217436,20.9081795 3.39330256,20.9076154 C3.25114872,20.9076154 3.10843077,20.9104359 2.96684103,20.8968974 C2.74796923,20.8765897 2.62330256,20.7434615 2.60299487,20.5285385 C2.58099487,20.289359 2.70227692,20.1274615 2.93130256,20.0778205 C3.08361026,20.0451026 3.24550769,20.0541282 3.40289231,20.0541282 C8.4612,20.053 13.5200718,20.053 18.5783795,20.053 C18.6889436,20.053 18.7995077,20.0496154 18.9100718,20.0569487 C19.1797128,20.0755641 19.3720718,20.1974103 19.3681231,20.4913077 C19.3647385,20.784641 19.1785846,20.9059231 18.9004821,20.9064872 C18.4582256,20.9070513 18.0154051,20.9081795 17.5731487,20.9081795 C15.3754051,20.9081795 13.1782256,20.9081795 10.9810462,20.9081795" id="Fill-7" fill="#000000"></path>
                </g>
            </g>
        </g>
    </g>
</svg>